<svg width="19" height="25" viewBox="0 0 19 25" fill="none" xmlns="http://www.w3.org/2000/svg">
<path d="M11.875 25V18.0233L9.38125 15.6977L8.19375 20.814L0 19.186L0.475 16.8605L6.175 18.0233L8.075 8.60465L5.9375 9.4186V13.3721H3.5625V7.90698L8.25313 5.93023C8.94583 5.63953 9.45547 5.45058 9.78203 5.36337C10.1086 5.27616 10.4104 5.23256 10.6875 5.23256C11.1031 5.23256 11.4891 5.33915 11.8453 5.55233C12.2016 5.7655 12.4885 6.04651 12.7063 6.39535L13.8938 8.25581C14.4083 9.06977 15.106 9.73837 15.9867 10.2616C16.8674 10.7849 17.8719 11.0465 19 11.0465V13.3721C17.6938 13.3721 16.4716 13.1056 15.3336 12.5727C14.1956 12.0397 13.2406 11.3372 12.4688 10.4651L11.7563 13.9535L14.25 16.2791V25H11.875ZM12.4688 4.65116C11.8156 4.65116 11.2565 4.42345 10.7914 3.96802C10.3263 3.5126 10.0938 2.96512 10.0938 2.32558C10.0938 1.68605 10.3263 1.13857 10.7914 0.68314C11.2565 0.227713 11.8156 0 12.4688 0C13.1219 0 13.681 0.227713 14.1461 0.68314C14.6112 1.13857 14.8438 1.68605 14.8438 2.32558C14.8438 2.96512 14.6112 3.5126 14.1461 3.96802C13.681 4.42345 13.1219 4.65116 12.4688 4.65116Z" fill="#1C1B1F"/>
</svg>
