<svg width="30" height="30" viewBox="0 0 30 30" fill="none" xmlns="http://www.w3.org/2000/svg">
<path d="M24.0789 30C22.4211 30 21.0197 29.3409 19.875 28.0227C18.7303 26.7045 18.1579 25.0909 18.1579 23.1818C18.1579 21.2727 18.7303 19.6591 19.875 18.3409C21.0197 17.0227 22.4211 16.3636 24.0789 16.3636C25.7368 16.3636 27.1382 17.0227 28.2829 18.3409C29.4276 19.6591 30 21.2727 30 23.1818C30 25.0909 29.4276 26.7045 28.2829 28.0227C27.1382 29.3409 25.7368 30 24.0789 30ZM24.0789 26.3636C24.8421 26.3636 25.4934 26.053 26.0329 25.4318C26.5724 24.8106 26.8421 24.0606 26.8421 23.1818C26.8421 22.303 26.5724 21.553 26.0329 20.9318C25.4934 20.3106 24.8421 20 24.0789 20C23.3158 20 22.6645 20.3106 22.125 20.9318C21.5855 21.553 21.3158 22.303 21.3158 23.1818C21.3158 24.0606 21.5855 24.8106 22.125 25.4318C22.6645 26.053 23.3158 26.3636 24.0789 26.3636ZM2.36842 25V21.3636H15V25H2.36842ZM5.92105 13.6364C4.26316 13.6364 2.86184 12.9773 1.71711 11.6591C0.572368 10.3409 0 8.72727 0 6.81818C0 4.90909 0.572368 3.29545 1.71711 1.97727C2.86184 0.659091 4.26316 0 5.92105 0C7.57895 0 8.98026 0.659091 10.125 1.97727C11.2697 3.29545 11.8421 4.90909 11.8421 6.81818C11.8421 8.72727 11.2697 10.3409 10.125 11.6591C8.98026 12.9773 7.57895 13.6364 5.92105 13.6364ZM5.92105 10C6.68421 10 7.33553 9.68939 7.875 9.06818C8.41447 8.44697 8.68421 7.69697 8.68421 6.81818C8.68421 5.93939 8.41447 5.18939 7.875 4.56818C7.33553 3.94697 6.68421 3.63636 5.92105 3.63636C5.1579 3.63636 4.50658 3.94697 3.96711 4.56818C3.42763 5.18939 3.15789 5.93939 3.15789 6.81818C3.15789 7.69697 3.42763 8.44697 3.96711 9.06818C4.50658 9.68939 5.1579 10 5.92105 10ZM15 8.63636V5H27.6316V8.63636H15Z" fill="#803D3B"/>
</svg>
