<svg width="30" height="30" viewBox="0 0 30 30" fill="none" xmlns="http://www.w3.org/2000/svg">
<path d="M16.4662 30V26.9849C17.5188 26.8342 18.5401 26.5452 19.5301 26.1181C20.5201 25.691 21.4536 25.1508 22.3308 24.4975L24.5113 26.6834C23.3333 27.6131 22.0677 28.3606 20.7143 28.9259C19.3609 29.4912 17.9449 29.8492 16.4662 30ZM26.6165 24.4975L24.5113 22.3869C25.1629 21.5578 25.6892 20.647 26.0902 19.6545C26.4912 18.6621 26.7669 17.6131 26.9173 16.5075H30C29.7995 18.0653 29.4173 19.5163 28.8534 20.8606C28.2895 22.2048 27.5439 23.4171 26.6165 24.4975ZM26.9173 13.4925C26.7669 12.3618 26.4912 11.3003 26.0902 10.3078C25.6892 9.31533 25.1629 8.41709 24.5113 7.61307L26.6165 5.50251C27.5689 6.60804 28.3396 7.8392 28.9286 9.19598C29.5175 10.5528 29.8747 11.9849 30 13.4925H26.9173ZM13.4586 30C9.62406 29.5477 6.42231 27.902 3.85338 25.0628C1.28446 22.2236 0 18.8693 0 15C0 11.1055 1.28446 7.73869 3.85338 4.8995C6.42231 2.0603 9.62406 0.427136 13.4586 0V3.01508C10.4511 3.44221 7.95739 4.78643 5.97744 7.04774C3.99749 9.30905 3.00752 11.9598 3.00752 15C3.00752 18.0402 3.99749 20.6847 5.97744 22.9334C7.95739 25.1822 10.4511 26.5327 13.4586 26.9849V30ZM22.406 5.50251C21.5038 4.82412 20.5514 4.27136 19.5489 3.84422C18.5464 3.41709 17.5188 3.1407 16.4662 3.01508V0C17.9449 0.125628 19.3609 0.471106 20.7143 1.03643C22.0677 1.60176 23.3333 2.36181 24.5113 3.31658L22.406 5.50251ZM15 22.5377C13.5464 21.3065 12.1805 19.9874 10.9023 18.5804C9.62406 17.1734 8.98496 15.5276 8.98496 13.6432C8.98496 11.9347 9.56767 10.4774 10.7331 9.27136C11.8985 8.06533 13.3208 7.46231 15 7.46231C16.6792 7.46231 18.1015 8.06533 19.2669 9.27136C20.4323 10.4774 21.015 11.9347 21.015 13.6432C21.015 15.5276 20.3759 17.1734 19.0977 18.5804C17.8195 19.9874 16.4536 21.3065 15 22.5377ZM15 15C15.4511 15 15.8333 14.843 16.1466 14.5289C16.4599 14.2148 16.6165 13.8317 16.6165 13.3794C16.6165 12.9523 16.4599 12.5754 16.1466 12.2487C15.8333 11.9221 15.4511 11.7588 15 11.7588C14.5489 11.7588 14.1667 11.9221 13.8534 12.2487C13.5401 12.5754 13.3835 12.9523 13.3835 13.3794C13.3835 13.8317 13.5401 14.2148 13.8534 14.5289C14.1667 14.843 14.5489 15 15 15Z" fill="#803D3B"/>
</svg>
