<svg width="65" height="32" viewBox="0 0 65 32" fill="none" xmlns="http://www.w3.org/2000/svg">
<path d="M0.2929 23.2929C-0.0976257 23.6834 -0.0976257 24.3166 0.2929 24.7071L6.65686 31.0711C7.04738 31.4616 7.68055 31.4616 8.07107 31.0711C8.4616 30.6805 8.4616 30.0474 8.07107 29.6569L2.41422 24L8.07107 18.3431C8.4616 17.9526 8.4616 17.3195 8.07107 16.9289C7.68055 16.5384 7.04738 16.5384 6.65686 16.9289L0.2929 23.2929ZM65 23L33 23V25L65 25V23ZM33 23L1 23V25L33 25V23Z" fill="#803D3B"/>
<path d="M13.1532 19V4.45455H14.9145V17.4375H21.6759V19H13.1532ZM28.2077 19.2273C27.2229 19.2273 26.3587 18.9929 25.6154 18.5241C24.8767 18.0554 24.2991 17.3996 23.8824 16.5568C23.4705 15.714 23.2645 14.7292 23.2645 13.6023C23.2645 12.4659 23.4705 11.474 23.8824 10.6264C24.2991 9.77888 24.8767 9.12074 25.6154 8.65199C26.3587 8.18324 27.2229 7.94886 28.2077 7.94886C29.1926 7.94886 30.0543 8.18324 30.7929 8.65199C31.5363 9.12074 32.114 9.77888 32.5259 10.6264C32.9426 11.474 33.1509 12.4659 33.1509 13.6023C33.1509 14.7292 32.9426 15.714 32.5259 16.5568C32.114 17.3996 31.5363 18.0554 30.7929 18.5241C30.0543 18.9929 29.1926 19.2273 28.2077 19.2273ZM28.2077 17.7216C28.9558 17.7216 29.5713 17.5298 30.0543 17.1463C30.5373 16.7628 30.8947 16.2585 31.1267 15.6335C31.3587 15.0085 31.4748 14.3314 31.4748 13.6023C31.4748 12.8731 31.3587 12.1937 31.1267 11.5639C30.8947 10.9342 30.5373 10.4252 30.0543 10.0369C29.5713 9.64867 28.9558 9.45455 28.2077 9.45455C27.4596 9.45455 26.8441 9.64867 26.3611 10.0369C25.8782 10.4252 25.5207 10.9342 25.2887 11.5639C25.0567 12.1937 24.9407 12.8731 24.9407 13.6023C24.9407 14.3314 25.0567 15.0085 25.2887 15.6335C25.5207 16.2585 25.8782 16.7628 26.3611 17.1463C26.8441 17.5298 27.4596 17.7216 28.2077 17.7216ZM39.7129 23.3182C38.9032 23.3182 38.2072 23.214 37.6248 23.0057C37.0424 22.8021 36.5571 22.5322 36.1689 22.196C35.7853 21.8646 35.4799 21.5095 35.2527 21.1307L36.5879 20.1932C36.7394 20.392 36.9312 20.6193 37.1632 20.875C37.3952 21.1354 37.7124 21.3603 38.1149 21.5497C38.5221 21.7438 39.0547 21.8409 39.7129 21.8409C40.5936 21.8409 41.3204 21.6278 41.8933 21.2017C42.4662 20.7756 42.7527 20.108 42.7527 19.1989V16.983H42.6106C42.4875 17.1818 42.3123 17.428 42.085 17.7216C41.8625 18.0104 41.5405 18.2685 41.1191 18.4957C40.7025 18.7183 40.139 18.8295 39.4288 18.8295C38.5481 18.8295 37.7574 18.6212 37.0566 18.2045C36.3606 17.7879 35.809 17.1818 35.4018 16.3864C34.9993 15.5909 34.7981 14.625 34.7981 13.4886C34.7981 12.3712 34.9946 11.3982 35.3876 10.5696C35.7806 9.73627 36.3275 9.09233 37.0282 8.63778C37.729 8.1785 38.5386 7.94886 39.4572 7.94886C40.1674 7.94886 40.7309 8.06723 41.1475 8.30398C41.569 8.53598 41.8909 8.80114 42.1135 9.09943C42.3407 9.39299 42.5159 9.63447 42.639 9.82386H42.8095V8.09091H44.4288V19.3125C44.4288 20.25 44.2157 21.0123 43.7896 21.5994C43.3682 22.1913 42.8 22.6245 42.085 22.8991C41.3748 23.1785 40.5841 23.3182 39.7129 23.3182ZM39.6561 17.3239C40.3284 17.3239 40.8966 17.17 41.3606 16.8622C41.8246 16.5545 42.1774 16.1117 42.4189 15.5341C42.6603 14.9564 42.7811 14.2652 42.7811 13.4602C42.7811 12.6742 42.6627 11.9806 42.426 11.3793C42.1892 10.7779 41.8388 10.3068 41.3748 9.96591C40.9108 9.625 40.3379 9.45455 39.6561 9.45455C38.9458 9.45455 38.354 9.63447 37.8805 9.99432C37.4118 10.3542 37.059 10.8371 36.8223 11.4432C36.5903 12.0492 36.4743 12.7216 36.4743 13.4602C36.4743 14.2178 36.5926 14.8878 36.8294 15.4702C37.0708 16.0478 37.426 16.5024 37.8947 16.8338C38.3682 17.1605 38.9553 17.3239 39.6561 17.3239ZM47.097 19V8.09091H48.7731V19H47.097ZM47.9493 6.27273C47.6225 6.27273 47.3408 6.16146 47.1041 5.93892C46.8721 5.71638 46.7561 5.44886 46.7561 5.13636C46.7561 4.82386 46.8721 4.55634 47.1041 4.33381C47.3408 4.11127 47.6225 4 47.9493 4C48.276 4 48.5553 4.11127 48.7873 4.33381C49.0241 4.55634 49.1424 4.82386 49.1424 5.13636C49.1424 5.44886 49.0241 5.71638 48.7873 5.93892C48.5553 6.16146 48.276 6.27273 47.9493 6.27273ZM53.1192 12.4375V19H51.4431V8.09091H53.0624V9.79545H53.2044C53.4601 9.24148 53.8484 8.7964 54.3692 8.46023C54.89 8.11932 55.5624 7.94886 56.3863 7.94886C57.1249 7.94886 57.7712 8.10038 58.3252 8.40341C58.8792 8.7017 59.31 9.15625 59.6178 9.76705C59.9256 10.3731 60.0794 11.1402 60.0794 12.0682V19H58.4033V12.1818C58.4033 11.3248 58.1808 10.6572 57.7357 10.179C57.2906 9.69602 56.6798 9.45455 55.9033 9.45455C55.3683 9.45455 54.89 9.57055 54.4686 9.80256C54.052 10.0346 53.7229 10.3731 53.4814 10.8182C53.24 11.2633 53.1192 11.803 53.1192 12.4375Z" fill="#803D3B"/>
</svg>
