<svg width="136" height="43" viewBox="0 0 136 43" fill="none" xmlns="http://www.w3.org/2000/svg">
<mask id="path-1-outside-1_47_9265" maskUnits="userSpaceOnUse" x="0" y="4.02304" width="84" height="35" fill="black">
<rect fill="white" y="4.02304" width="84" height="35"/>
<path d="M16.5753 37.423C15.962 37.423 15.282 37.303 14.5353 37.063C13.8153 36.823 13.122 36.423 12.4553 35.863C11.8153 35.2764 11.2686 34.4897 10.8153 33.503L2.41531 14.543C1.66865 12.863 1.50865 11.2497 1.93531 9.70304C2.38865 8.15637 3.42865 7.02304 5.05531 6.30304L5.69531 6.02304C7.42865 5.24971 8.98865 5.24971 10.3753 6.02304C11.7886 6.76971 12.842 7.98304 13.5353 9.66304C13.5886 9.74304 13.5753 9.82304 13.4953 9.90304C13.442 9.95637 13.3753 9.98304 13.2953 9.98304C13.162 9.98304 13.082 9.92971 13.0553 9.82304C12.3886 8.27637 11.442 7.15637 10.2153 6.46304C8.98865 5.74304 7.54865 5.74304 5.89531 6.46304L5.25531 6.74304C3.73531 7.40971 2.78865 8.46304 2.41531 9.90304C2.04198 11.343 2.18865 12.8364 2.85531 14.383L11.2553 33.343C11.8686 34.703 12.682 35.6497 13.6953 36.183C14.7086 36.6897 15.6686 36.943 16.5753 36.943C17.482 36.943 18.4553 36.6897 19.4953 36.183C20.5353 35.6764 21.3486 34.7297 21.9353 33.343L29.8953 14.423C30.562 12.8764 30.7086 11.3964 30.3353 9.98304C29.962 8.54304 29.0286 7.47637 27.5353 6.78304L26.9353 6.50304C25.8686 5.99637 24.842 5.82304 23.8553 5.98304C22.8686 6.14304 22.002 6.55637 21.2553 7.22304C20.5086 7.88971 19.922 8.74304 19.4953 9.78304L15.8153 18.903C15.7886 18.983 15.722 19.023 15.6153 19.023C15.402 19.023 15.322 18.9297 15.3753 18.743L19.0553 9.62304C19.5086 8.47637 20.1486 7.54304 20.9753 6.82304C21.802 6.10304 22.7353 5.66304 23.7753 5.50304C24.842 5.34304 25.9486 5.52971 27.0953 6.06304L27.6953 6.34304C29.322 7.08971 30.3486 8.22304 30.7753 9.74304C31.202 11.263 31.0553 12.8764 30.3353 14.583L22.3753 33.503C21.9486 34.5164 21.3886 35.3164 20.6953 35.903C20.0286 36.463 19.3353 36.8497 18.6153 37.063C17.8953 37.303 17.2153 37.423 16.5753 37.423ZM37.8941 37.023C36.9074 37.023 36.0007 36.7964 35.1741 36.343C34.3741 35.863 33.7341 35.223 33.2541 34.423C32.7741 33.623 32.5341 32.7164 32.5341 31.703V30.823C32.5341 29.863 32.7607 28.983 33.2141 28.183C33.6941 27.383 34.3207 26.743 35.0941 26.263C35.8674 25.7564 36.7341 25.503 37.6941 25.503V17.143C36.7074 17.1164 35.8274 16.863 35.0541 16.383C34.2807 15.903 33.6674 15.2764 33.2141 14.503C32.7607 13.7297 32.5341 12.8897 32.5341 11.983V11.103C32.5341 10.1164 32.7607 9.23637 33.2141 8.46304C33.6941 7.68971 34.3207 7.07637 35.0941 6.62304C35.8941 6.14304 36.7741 5.90304 37.7341 5.90304H47.8141C48.8007 5.90304 49.6807 6.14304 50.4541 6.62304C51.2541 7.07637 51.8807 7.68971 52.3341 8.46304C52.8141 9.23637 53.0541 10.1164 53.0541 11.103V11.983C53.0541 12.8897 52.8274 13.7297 52.3741 14.503C51.9474 15.2764 51.3341 15.903 50.5341 16.383C49.7607 16.863 48.8541 17.1164 47.8141 17.143V23.903C47.8141 24.063 47.7341 24.143 47.5741 24.143C47.4141 24.143 47.3341 24.063 47.3341 23.903V16.903C47.3341 16.743 47.4007 16.663 47.5341 16.663C49.0007 16.663 50.2007 16.2097 51.1341 15.303C52.0941 14.3964 52.5741 13.2897 52.5741 11.983V11.103C52.5741 10.223 52.3607 9.42304 51.9341 8.70304C51.5074 7.98304 50.9341 7.42304 50.2141 7.02304C49.4941 6.59637 48.6941 6.38304 47.8141 6.38304H37.7341C36.4274 6.38304 35.3074 6.83637 34.3741 7.74304C33.4674 8.64971 33.0141 9.76971 33.0141 11.103V11.983C33.0141 13.2897 33.4807 14.3964 34.4141 15.303C35.3474 16.2097 36.5207 16.663 37.9341 16.663C38.0941 16.663 38.1741 16.743 38.1741 16.903V25.743C38.1741 25.8764 38.0941 25.943 37.9341 25.943C37.0274 25.943 36.2007 26.1697 35.4541 26.623C34.7074 27.0497 34.1074 27.6364 33.6541 28.383C33.2274 29.103 33.0141 29.9164 33.0141 30.823V31.703C33.0141 33.0897 33.4807 34.2497 34.4141 35.183C35.3741 36.0897 36.5341 36.543 37.8941 36.543H47.7741C49.1607 36.543 50.3207 36.0897 51.2541 35.183C52.2141 34.2497 52.6941 33.0897 52.6941 31.703V31.223C52.6941 29.6497 52.2007 28.3697 51.2141 27.383C50.2541 26.3964 49.0007 25.8897 47.4541 25.863C47.1074 25.863 46.7341 25.9297 46.3341 26.063C45.9607 26.1964 45.6007 26.423 45.2541 26.743C45.0941 26.8497 44.9607 26.8497 44.8541 26.743C44.7474 26.6364 44.7607 26.5164 44.8941 26.383C45.2141 26.063 45.6141 25.823 46.0941 25.663C46.6007 25.4764 47.0541 25.383 47.4541 25.383C48.5741 25.383 49.5607 25.6364 50.4141 26.143C51.2674 26.6497 51.9341 27.343 52.4141 28.223C52.9207 29.103 53.1741 30.103 53.1741 31.223V31.703C53.1741 32.7164 52.9341 33.623 52.4541 34.423C51.9741 35.223 51.3207 35.863 50.4941 36.343C49.6941 36.7964 48.7874 37.023 47.7741 37.023H37.8941ZM61.2247 37.023C60.158 37.023 59.1714 36.7564 58.2647 36.223C57.3847 35.6897 56.678 34.983 56.1447 34.103C55.6114 33.223 55.3447 32.2497 55.3447 31.183C55.3447 30.3297 55.5314 29.5697 55.9047 28.903C56.278 28.2097 56.7047 27.5564 57.1847 26.943L64.4247 17.623H60.6247C59.558 17.623 58.5714 17.3697 57.6647 16.863C56.7847 16.3297 56.078 15.623 55.5447 14.743C55.0114 13.8364 54.7314 12.8497 54.7047 11.783C54.7314 10.6897 54.9847 9.70304 55.4647 8.82304C55.9447 7.94304 56.6247 7.23637 57.5047 6.70304C58.3847 6.16971 59.4247 5.90304 60.6247 5.90304H75.6647C76.758 5.90304 77.7447 6.16971 78.6247 6.70304C79.5047 7.23637 80.2114 7.94304 80.7447 8.82304C81.278 9.70304 81.5447 10.6897 81.5447 11.783C81.5447 12.7964 81.2914 13.743 80.7847 14.623C80.3047 15.4764 79.678 16.1697 78.9047 16.703C78.798 16.7564 78.7047 16.7564 78.6247 16.703C78.5447 16.6497 78.5047 16.583 78.5047 16.503C78.5047 16.3964 78.5447 16.3297 78.6247 16.303C79.3714 15.7964 79.958 15.1564 80.3847 14.383C80.838 13.583 81.0647 12.7164 81.0647 11.783C81.0647 10.7964 80.8247 9.90304 80.3447 9.10304C79.8647 8.27637 79.2114 7.62304 78.3847 7.14304C77.5847 6.63637 76.678 6.38304 75.6647 6.38304H60.6247C58.9447 6.38304 57.6247 6.91637 56.6647 7.98304C55.7047 9.02304 55.2114 10.2897 55.1847 11.783C55.2114 12.7697 55.4647 13.6764 55.9447 14.503C56.4514 15.303 57.1047 15.943 57.9047 16.423C58.7314 16.903 59.638 17.143 60.6247 17.143H64.7047C64.8647 17.143 64.9714 17.1964 65.0247 17.303C65.1047 17.4097 65.078 17.5564 64.9447 17.743L57.5447 27.223C57.118 27.8097 56.718 28.423 56.3447 29.063C55.998 29.703 55.8247 30.4097 55.8247 31.183C55.8247 32.1697 56.0647 33.0764 56.5447 33.903C57.0514 34.703 57.7047 35.343 58.5047 35.823C59.3314 36.303 60.238 36.543 61.2247 36.543H76.0247C77.918 36.543 79.358 36.023 80.3447 34.983C81.3314 33.9164 81.8247 32.6497 81.8247 31.183C81.8247 29.4764 81.3314 28.0897 80.3447 27.023C79.358 25.9297 77.918 25.383 76.0247 25.383C75.198 25.383 74.398 25.583 73.6247 25.983C72.878 26.3564 72.2647 26.8764 71.7847 27.543C71.3314 28.183 71.1047 28.9297 71.1047 29.783C71.1047 29.943 71.0247 30.023 70.8647 30.023C70.7047 30.023 70.6247 29.943 70.6247 29.783C70.6247 28.8497 70.878 28.023 71.3847 27.303C71.918 26.5564 72.598 25.9697 73.4247 25.543C74.2514 25.1164 75.118 24.903 76.0247 24.903C78.0514 24.903 79.598 25.503 80.6647 26.703C81.758 27.8764 82.3047 29.3697 82.3047 31.183C82.3047 32.783 81.758 34.1564 80.6647 35.303C79.5714 36.4497 78.0247 37.023 76.0247 37.023H61.2247Z"/>
</mask>
<path d="M16.5753 37.423C15.962 37.423 15.282 37.303 14.5353 37.063C13.8153 36.823 13.122 36.423 12.4553 35.863C11.8153 35.2764 11.2686 34.4897 10.8153 33.503L2.41531 14.543C1.66865 12.863 1.50865 11.2497 1.93531 9.70304C2.38865 8.15637 3.42865 7.02304 5.05531 6.30304L5.69531 6.02304C7.42865 5.24971 8.98865 5.24971 10.3753 6.02304C11.7886 6.76971 12.842 7.98304 13.5353 9.66304C13.5886 9.74304 13.5753 9.82304 13.4953 9.90304C13.442 9.95637 13.3753 9.98304 13.2953 9.98304C13.162 9.98304 13.082 9.92971 13.0553 9.82304C12.3886 8.27637 11.442 7.15637 10.2153 6.46304C8.98865 5.74304 7.54865 5.74304 5.89531 6.46304L5.25531 6.74304C3.73531 7.40971 2.78865 8.46304 2.41531 9.90304C2.04198 11.343 2.18865 12.8364 2.85531 14.383L11.2553 33.343C11.8686 34.703 12.682 35.6497 13.6953 36.183C14.7086 36.6897 15.6686 36.943 16.5753 36.943C17.482 36.943 18.4553 36.6897 19.4953 36.183C20.5353 35.6764 21.3486 34.7297 21.9353 33.343L29.8953 14.423C30.562 12.8764 30.7086 11.3964 30.3353 9.98304C29.962 8.54304 29.0286 7.47637 27.5353 6.78304L26.9353 6.50304C25.8686 5.99637 24.842 5.82304 23.8553 5.98304C22.8686 6.14304 22.002 6.55637 21.2553 7.22304C20.5086 7.88971 19.922 8.74304 19.4953 9.78304L15.8153 18.903C15.7886 18.983 15.722 19.023 15.6153 19.023C15.402 19.023 15.322 18.9297 15.3753 18.743L19.0553 9.62304C19.5086 8.47637 20.1486 7.54304 20.9753 6.82304C21.802 6.10304 22.7353 5.66304 23.7753 5.50304C24.842 5.34304 25.9486 5.52971 27.0953 6.06304L27.6953 6.34304C29.322 7.08971 30.3486 8.22304 30.7753 9.74304C31.202 11.263 31.0553 12.8764 30.3353 14.583L22.3753 33.503C21.9486 34.5164 21.3886 35.3164 20.6953 35.903C20.0286 36.463 19.3353 36.8497 18.6153 37.063C17.8953 37.303 17.2153 37.423 16.5753 37.423ZM37.8941 37.023C36.9074 37.023 36.0007 36.7964 35.1741 36.343C34.3741 35.863 33.7341 35.223 33.2541 34.423C32.7741 33.623 32.5341 32.7164 32.5341 31.703V30.823C32.5341 29.863 32.7607 28.983 33.2141 28.183C33.6941 27.383 34.3207 26.743 35.0941 26.263C35.8674 25.7564 36.7341 25.503 37.6941 25.503V17.143C36.7074 17.1164 35.8274 16.863 35.0541 16.383C34.2807 15.903 33.6674 15.2764 33.2141 14.503C32.7607 13.7297 32.5341 12.8897 32.5341 11.983V11.103C32.5341 10.1164 32.7607 9.23637 33.2141 8.46304C33.6941 7.68971 34.3207 7.07637 35.0941 6.62304C35.8941 6.14304 36.7741 5.90304 37.7341 5.90304H47.8141C48.8007 5.90304 49.6807 6.14304 50.4541 6.62304C51.2541 7.07637 51.8807 7.68971 52.3341 8.46304C52.8141 9.23637 53.0541 10.1164 53.0541 11.103V11.983C53.0541 12.8897 52.8274 13.7297 52.3741 14.503C51.9474 15.2764 51.3341 15.903 50.5341 16.383C49.7607 16.863 48.8541 17.1164 47.8141 17.143V23.903C47.8141 24.063 47.7341 24.143 47.5741 24.143C47.4141 24.143 47.3341 24.063 47.3341 23.903V16.903C47.3341 16.743 47.4007 16.663 47.5341 16.663C49.0007 16.663 50.2007 16.2097 51.1341 15.303C52.0941 14.3964 52.5741 13.2897 52.5741 11.983V11.103C52.5741 10.223 52.3607 9.42304 51.9341 8.70304C51.5074 7.98304 50.9341 7.42304 50.2141 7.02304C49.4941 6.59637 48.6941 6.38304 47.8141 6.38304H37.7341C36.4274 6.38304 35.3074 6.83637 34.3741 7.74304C33.4674 8.64971 33.0141 9.76971 33.0141 11.103V11.983C33.0141 13.2897 33.4807 14.3964 34.4141 15.303C35.3474 16.2097 36.5207 16.663 37.9341 16.663C38.0941 16.663 38.1741 16.743 38.1741 16.903V25.743C38.1741 25.8764 38.0941 25.943 37.9341 25.943C37.0274 25.943 36.2007 26.1697 35.4541 26.623C34.7074 27.0497 34.1074 27.6364 33.6541 28.383C33.2274 29.103 33.0141 29.9164 33.0141 30.823V31.703C33.0141 33.0897 33.4807 34.2497 34.4141 35.183C35.3741 36.0897 36.5341 36.543 37.8941 36.543H47.7741C49.1607 36.543 50.3207 36.0897 51.2541 35.183C52.2141 34.2497 52.6941 33.0897 52.6941 31.703V31.223C52.6941 29.6497 52.2007 28.3697 51.2141 27.383C50.2541 26.3964 49.0007 25.8897 47.4541 25.863C47.1074 25.863 46.7341 25.9297 46.3341 26.063C45.9607 26.1964 45.6007 26.423 45.2541 26.743C45.0941 26.8497 44.9607 26.8497 44.8541 26.743C44.7474 26.6364 44.7607 26.5164 44.8941 26.383C45.2141 26.063 45.6141 25.823 46.0941 25.663C46.6007 25.4764 47.0541 25.383 47.4541 25.383C48.5741 25.383 49.5607 25.6364 50.4141 26.143C51.2674 26.6497 51.9341 27.343 52.4141 28.223C52.9207 29.103 53.1741 30.103 53.1741 31.223V31.703C53.1741 32.7164 52.9341 33.623 52.4541 34.423C51.9741 35.223 51.3207 35.863 50.4941 36.343C49.6941 36.7964 48.7874 37.023 47.7741 37.023H37.8941ZM61.2247 37.023C60.158 37.023 59.1714 36.7564 58.2647 36.223C57.3847 35.6897 56.678 34.983 56.1447 34.103C55.6114 33.223 55.3447 32.2497 55.3447 31.183C55.3447 30.3297 55.5314 29.5697 55.9047 28.903C56.278 28.2097 56.7047 27.5564 57.1847 26.943L64.4247 17.623H60.6247C59.558 17.623 58.5714 17.3697 57.6647 16.863C56.7847 16.3297 56.078 15.623 55.5447 14.743C55.0114 13.8364 54.7314 12.8497 54.7047 11.783C54.7314 10.6897 54.9847 9.70304 55.4647 8.82304C55.9447 7.94304 56.6247 7.23637 57.5047 6.70304C58.3847 6.16971 59.4247 5.90304 60.6247 5.90304H75.6647C76.758 5.90304 77.7447 6.16971 78.6247 6.70304C79.5047 7.23637 80.2114 7.94304 80.7447 8.82304C81.278 9.70304 81.5447 10.6897 81.5447 11.783C81.5447 12.7964 81.2914 13.743 80.7847 14.623C80.3047 15.4764 79.678 16.1697 78.9047 16.703C78.798 16.7564 78.7047 16.7564 78.6247 16.703C78.5447 16.6497 78.5047 16.583 78.5047 16.503C78.5047 16.3964 78.5447 16.3297 78.6247 16.303C79.3714 15.7964 79.958 15.1564 80.3847 14.383C80.838 13.583 81.0647 12.7164 81.0647 11.783C81.0647 10.7964 80.8247 9.90304 80.3447 9.10304C79.8647 8.27637 79.2114 7.62304 78.3847 7.14304C77.5847 6.63637 76.678 6.38304 75.6647 6.38304H60.6247C58.9447 6.38304 57.6247 6.91637 56.6647 7.98304C55.7047 9.02304 55.2114 10.2897 55.1847 11.783C55.2114 12.7697 55.4647 13.6764 55.9447 14.503C56.4514 15.303 57.1047 15.943 57.9047 16.423C58.7314 16.903 59.638 17.143 60.6247 17.143H64.7047C64.8647 17.143 64.9714 17.1964 65.0247 17.303C65.1047 17.4097 65.078 17.5564 64.9447 17.743L57.5447 27.223C57.118 27.8097 56.718 28.423 56.3447 29.063C55.998 29.703 55.8247 30.4097 55.8247 31.183C55.8247 32.1697 56.0647 33.0764 56.5447 33.903C57.0514 34.703 57.7047 35.343 58.5047 35.823C59.3314 36.303 60.238 36.543 61.2247 36.543H76.0247C77.918 36.543 79.358 36.023 80.3447 34.983C81.3314 33.9164 81.8247 32.6497 81.8247 31.183C81.8247 29.4764 81.3314 28.0897 80.3447 27.023C79.358 25.9297 77.918 25.383 76.0247 25.383C75.198 25.383 74.398 25.583 73.6247 25.983C72.878 26.3564 72.2647 26.8764 71.7847 27.543C71.3314 28.183 71.1047 28.9297 71.1047 29.783C71.1047 29.943 71.0247 30.023 70.8647 30.023C70.7047 30.023 70.6247 29.943 70.6247 29.783C70.6247 28.8497 70.878 28.023 71.3847 27.303C71.918 26.5564 72.598 25.9697 73.4247 25.543C74.2514 25.1164 75.118 24.903 76.0247 24.903C78.0514 24.903 79.598 25.503 80.6647 26.703C81.758 27.8764 82.3047 29.3697 82.3047 31.183C82.3047 32.783 81.758 34.1564 80.6647 35.303C79.5714 36.4497 78.0247 37.023 76.0247 37.023H61.2247Z" fill="black"/>
<path d="M14.5353 37.063L14.2191 38.0118L14.2293 38.0151L14.5353 37.063ZM12.4553 35.863L11.7796 36.6002L11.7955 36.6148L11.8121 36.6287L12.4553 35.863ZM10.8153 33.503L9.90094 33.9081L9.90664 33.9205L10.8153 33.503ZM2.41531 14.543L3.3296 14.138L3.32912 14.1369L2.41531 14.543ZM1.93531 9.70304L0.975683 9.42177L0.97344 9.42942L0.971319 9.43711L1.93531 9.70304ZM5.05531 6.30304L4.65449 5.38688L4.65057 5.38861L5.05531 6.30304ZM5.69531 6.02304L6.09614 6.93922L6.10275 6.93627L5.69531 6.02304ZM10.3753 6.02304L9.88824 6.8964L9.89816 6.90193L9.90819 6.90723L10.3753 6.02304ZM13.5353 9.66304L12.6109 10.0445L12.6486 10.1357L12.7033 10.2177L13.5353 9.66304ZM13.4953 9.90304L14.2024 10.6102L14.2024 10.6101L13.4953 9.90304ZM13.0553 9.82304L14.0255 9.5805L14.0058 9.50175L13.9736 9.42721L13.0553 9.82304ZM10.2153 6.46304L9.70911 7.32545L9.71615 7.32959L9.72326 7.3336L10.2153 6.46304ZM5.89531 6.46304L5.49605 5.5462L5.49449 5.54688L5.89531 6.46304ZM5.25531 6.74304L4.85449 5.82688L4.85365 5.82725L5.25531 6.74304ZM2.41531 9.90304L1.44731 9.65208V9.65208L2.41531 9.90304ZM2.85531 14.383L1.93694 14.7789L1.94102 14.7881L2.85531 14.383ZM11.2553 33.343L10.341 33.7481L10.3437 33.7541L11.2553 33.343ZM13.6953 36.183L13.2296 37.068L13.2388 37.0728L13.2481 37.0775L13.6953 36.183ZM19.4953 36.183L19.9333 37.082L19.4953 36.183ZM21.9353 33.343L22.8563 33.7327L22.8571 33.7308L21.9353 33.343ZM29.8953 14.423L28.977 14.0272L28.9736 14.0352L29.8953 14.423ZM30.3353 9.98304L29.3673 10.234L29.3685 10.2384L30.3353 9.98304ZM27.5353 6.78304L27.1124 7.68923L27.1142 7.69005L27.5353 6.78304ZM26.9353 6.50304L26.5062 7.40634L26.5124 7.40922L26.9353 6.50304ZM23.8553 5.98304L24.0154 6.97015L24.0154 6.97015L23.8553 5.98304ZM21.2553 7.22304L20.5893 6.4771V6.4771L21.2553 7.22304ZM19.4953 9.78304L18.5701 9.40348L18.568 9.40884L19.4953 9.78304ZM15.8153 18.903L14.888 18.5288L14.8764 18.5575L14.8666 18.5868L15.8153 18.903ZM15.3753 18.743L14.448 18.3688L14.4283 18.4177L14.4138 18.4683L15.3753 18.743ZM19.0553 9.62304L19.9827 9.99724L19.9853 9.9907L19.0553 9.62304ZM20.9753 6.82304L20.3185 6.06896L20.3185 6.06896L20.9753 6.82304ZM23.7753 5.50304L23.627 4.5141L23.6233 4.51467L23.7753 5.50304ZM27.0953 6.06304L27.5182 5.15686L27.517 5.15632L27.0953 6.06304ZM27.6953 6.34304L27.2724 7.24924L27.2781 7.25187L27.6953 6.34304ZM30.7753 9.74304L29.8125 10.0133V10.0133L30.7753 9.74304ZM30.3353 14.583L29.4139 14.1943L29.4136 14.1952L30.3353 14.583ZM22.3753 33.503L23.2969 33.8911L23.2971 33.8908L22.3753 33.503ZM20.6953 35.903L21.3385 36.6688L21.3413 36.6664L20.6953 35.903ZM18.6153 37.063L18.3312 36.1042L18.3151 36.109L18.2991 36.1144L18.6153 37.063ZM16.5753 36.423C16.0901 36.423 15.5152 36.3276 14.8413 36.111L14.2293 38.0151C15.0487 38.2785 15.8338 38.423 16.5753 38.423V36.423ZM14.8515 36.1144C14.2673 35.9196 13.6827 35.5881 13.0985 35.0973L11.8121 36.6287C12.5612 37.258 13.3633 37.7265 14.2191 38.0117L14.8515 36.1144ZM13.131 35.1259C12.6105 34.6487 12.1352 33.9805 11.724 33.0855L9.90664 33.9205C10.4021 34.9989 11.0202 35.9041 11.7796 36.6002L13.131 35.1259ZM11.7296 33.098L3.3296 14.138L1.50102 14.9481L9.90102 33.9081L11.7296 33.098ZM3.32912 14.1369C2.66198 12.6358 2.54302 11.2605 2.8993 9.96897L0.971319 9.43711C0.474266 11.2389 0.675311 13.0903 1.5015 14.9492L3.32912 14.1369ZM2.89494 9.98431C3.25627 8.75153 4.07101 7.83229 5.46006 7.21747L4.65057 5.38861C2.78628 6.21379 1.52102 7.56121 0.975683 9.42177L2.89494 9.98431ZM5.45613 7.2192L6.09613 6.9392L5.29449 5.10688L4.65449 5.38688L5.45613 7.2192ZM6.10275 6.93627C7.61162 6.26308 8.83221 6.30746 9.88824 6.8964L10.8624 5.14968C9.14508 4.19195 7.24567 4.23633 5.28787 5.10981L6.10275 6.93627ZM9.90819 6.90723C11.087 7.53 11.9937 8.54902 12.6109 10.0445L14.4597 9.28155C13.6902 7.41706 12.4903 6.00941 10.8424 5.13885L9.90819 6.90723ZM12.7033 10.2177C12.6168 10.0881 12.5362 9.87468 12.5789 9.61864C12.6177 9.38617 12.7374 9.24676 12.7882 9.19594L14.2024 10.6101C14.3332 10.4793 14.4996 10.2599 14.5517 9.94744C14.6077 9.6114 14.5071 9.31801 14.3674 9.10833L12.7033 10.2177ZM12.7882 9.19593C12.8524 9.13175 12.9352 9.07404 13.0339 9.03456C13.1315 8.99554 13.2226 8.98304 13.2953 8.98304V10.983C13.6227 10.983 13.9493 10.8633 14.2024 10.6102L12.7882 9.19593ZM13.2953 8.98304C13.3523 8.98304 13.5135 8.99334 13.69 9.11098C13.8867 9.24214 13.9877 9.42958 14.0255 9.5805L12.0852 10.0656C12.1496 10.3232 12.3039 10.5906 12.5806 10.7751C12.8371 10.9461 13.105 10.983 13.2953 10.983V8.98304ZM13.9736 9.42721C13.2379 7.72039 12.1592 6.41306 10.7074 5.59248L9.72326 7.3336C10.7248 7.89968 11.5394 8.83236 12.137 10.2189L13.9736 9.42721ZM10.7215 5.60062C9.14625 4.67601 7.3554 4.73649 5.49605 5.5462L6.29458 7.37987C7.74189 6.74959 8.83105 6.81007 9.70911 7.32545L10.7215 5.60062ZM5.49449 5.54688L4.85449 5.82688L5.65613 7.6592L6.29613 7.3792L5.49449 5.54688ZM4.85365 5.82725C3.08997 6.60079 1.90717 7.87835 1.44731 9.65208L3.38331 10.154C3.67012 9.04773 4.38065 8.21862 5.65697 7.65883L4.85365 5.82725ZM1.44731 9.65208C1.01092 11.3353 1.19458 13.0565 1.93699 14.7789L3.77364 13.9872C3.18271 12.6163 3.07303 11.3508 3.38331 10.154L1.44731 9.65208ZM1.94102 14.7881L10.341 33.7481L12.1696 32.938L3.7696 13.978L1.94102 14.7881ZM10.3437 33.7541C11.0208 35.2555 11.9663 36.4031 13.2296 37.068L14.1611 35.2981C13.3977 34.8963 12.7165 34.1506 12.1669 32.9319L10.3437 33.7541ZM13.2481 37.0775C14.3664 37.6366 15.4795 37.943 16.5753 37.943V35.943C15.8578 35.943 15.0509 35.7428 14.1425 35.2886L13.2481 37.0775ZM16.5753 37.943C17.6697 37.943 18.7933 37.6374 19.9333 37.082L19.0573 35.284C18.1173 35.742 17.2943 35.943 16.5753 35.943V37.943ZM19.9333 37.082C21.2492 36.4409 22.2044 35.2734 22.8563 33.7327L21.0143 32.9534C20.4928 34.186 19.8214 34.9118 19.0573 35.2841L19.9333 37.082ZM22.8571 33.7308L30.8171 14.8108L28.9736 14.0352L21.0136 32.9552L22.8571 33.7308ZM30.8136 14.8189C31.5548 13.0994 31.7411 11.3895 31.3022 9.72765L29.3685 10.2384C29.6762 11.4033 29.5692 12.6533 28.977 14.0272L30.8136 14.8189ZM31.3033 9.73208C30.8463 7.96934 29.6882 6.68005 27.9564 5.87603L27.1142 7.69005C28.3691 8.2727 29.0777 9.11674 29.3673 10.234L31.3033 9.73208ZM27.9582 5.87685L27.3582 5.59686L26.5124 7.40922L27.1124 7.68922L27.9582 5.87685ZM27.3644 5.59976C26.1484 5.02219 24.9165 4.7979 23.6952 4.99593L24.0154 6.97015C24.7675 6.84818 25.5889 6.97056 26.5063 7.40632L27.3644 5.59976ZM23.6952 4.99593C22.5201 5.1865 21.478 5.68365 20.5893 6.4771L21.9213 7.96898C22.526 7.42909 23.2172 7.09958 24.0154 6.97015L23.6952 4.99593ZM20.5893 6.4771C19.7164 7.25649 19.0472 8.24068 18.5701 9.40348L20.4205 10.1626C20.7968 9.2454 21.3009 8.52292 21.9213 7.96898L20.5893 6.4771ZM18.568 9.40884L14.888 18.5288L16.7427 19.2772L20.4227 10.1572L18.568 9.40884ZM14.8666 18.5868C14.9219 18.421 15.0415 18.2491 15.2308 18.1355C15.4004 18.0338 15.5522 18.023 15.6153 18.023V20.023C15.7851 20.023 16.0236 19.9923 16.2598 19.8505C16.5158 19.697 16.6821 19.4651 16.764 19.2193L14.8666 18.5868ZM15.6153 18.023C15.6282 18.023 15.6925 18.0236 15.7835 18.0526C15.8796 18.0832 16.0265 18.1528 16.1546 18.3022C16.4381 18.633 16.347 18.9823 16.3368 19.0178L14.4138 18.4683C14.3503 18.6904 14.2726 19.1798 14.6361 19.6038C14.9676 19.9906 15.4209 20.023 15.6153 20.023V18.023ZM16.3027 19.1172L19.9827 9.99723L18.128 9.24884L14.448 18.3688L16.3027 19.1172ZM19.9853 9.9907C20.3872 8.97406 20.9405 8.17952 21.6321 7.57712L20.3185 6.06896C19.3568 6.90656 18.6301 7.97869 18.1254 9.25538L19.9853 9.9907ZM21.6321 7.57712C22.3223 6.97593 23.0824 6.6214 23.9274 6.49141L23.6233 4.51467C22.3882 4.70468 21.2816 5.23015 20.3185 6.06896L21.6321 7.57712ZM23.9237 6.49198C24.7648 6.36581 25.6734 6.50458 26.6736 6.96976L27.517 5.15632C26.2239 4.55484 24.9192 4.32027 23.627 4.5141L23.9237 6.49198ZM26.6724 6.96922L27.2724 7.24922L28.1182 5.43686L27.5182 5.15686L26.6724 6.96922ZM27.2781 7.25187C28.6779 7.8944 29.4763 8.81564 29.8125 10.0133L31.7381 9.47278C31.221 7.63044 29.966 6.28501 28.1125 5.43421L27.2781 7.25187ZM29.8125 10.0133C30.1678 11.2789 30.0618 12.6586 29.4139 14.1943L31.2567 14.9717C32.0488 13.0942 32.2362 11.2472 31.7381 9.47278L29.8125 10.0133ZM29.4136 14.1952L21.4536 33.1152L23.2971 33.8908L31.2571 14.9708L29.4136 14.1952ZM21.4537 33.115C21.0754 34.0134 20.5998 34.6739 20.0494 35.1397L21.3413 36.6664C22.1775 35.9589 22.8219 35.0193 23.2969 33.8911L21.4537 33.115ZM20.0521 35.1373C19.474 35.623 18.9002 35.9357 18.3312 36.1042L18.8994 38.0218C19.7704 37.7638 20.5833 37.3031 21.3385 36.6687L20.0521 35.1373ZM18.2991 36.1144C17.6626 36.3265 17.09 36.423 16.5753 36.423V38.423C17.3406 38.423 18.128 38.2796 18.9315 38.0117L18.2991 36.1144ZM35.1741 36.343L34.6596 37.2005L34.6762 37.2105L34.6932 37.2199L35.1741 36.343ZM33.2541 34.423L34.1116 33.9085L33.2541 34.423ZM33.2141 28.183L32.3566 27.6685L32.3502 27.6792L32.344 27.69L33.2141 28.183ZM35.0941 26.263L35.6214 27.1127L35.6318 27.1062L35.6421 27.0995L35.0941 26.263ZM37.6941 25.503V26.503H38.6941V25.503H37.6941ZM37.6941 17.143H38.6941V16.1697L37.7211 16.1434L37.6941 17.143ZM35.0541 16.383L35.5814 15.5334L35.0541 16.383ZM33.2141 8.46304L32.3644 7.93568L32.3578 7.94642L32.3514 7.95732L33.2141 8.46304ZM35.0941 6.62304L35.5998 7.48578L35.6086 7.48053L35.0941 6.62304ZM50.4541 6.62304L49.9267 7.47268L49.9437 7.48321L49.9611 7.49306L50.4541 6.62304ZM52.3341 8.46304L51.4714 8.96876L51.4778 8.97966L51.4844 8.9904L52.3341 8.46304ZM52.3741 14.503L51.5114 13.9973L51.5048 14.0086L51.4985 14.02L52.3741 14.503ZM50.5341 16.383L50.0196 15.5255L50.0131 15.5294L50.0067 15.5334L50.5341 16.383ZM47.8141 17.143L47.7884 16.1434L46.8141 16.1684V17.143H47.8141ZM51.1341 15.303L50.4474 14.576L50.4373 14.5858L51.1341 15.303ZM51.9341 8.70304L51.0738 9.21284V9.21284L51.9341 8.70304ZM50.2141 7.02304L49.7043 7.88333L49.7162 7.89043L49.7284 7.89719L50.2141 7.02304ZM34.3741 7.74304L33.6773 7.02576L33.6721 7.03081L33.667 7.03593L34.3741 7.74304ZM34.4141 15.303L35.1108 14.5858V14.5858L34.4141 15.303ZM35.4541 26.623L35.9502 27.4913L35.9617 27.4847L35.973 27.4778L35.4541 26.623ZM33.6541 28.383L32.7992 27.864L32.7938 27.8732L33.6541 28.383ZM34.4141 35.183L33.707 35.8901L33.7171 35.9002L33.7274 35.9101L34.4141 35.183ZM51.2541 35.183L51.9508 35.9003L51.9511 35.9L51.2541 35.183ZM51.2141 27.383L50.4973 28.0805L50.507 28.0901L51.2141 27.383ZM47.4541 25.863L47.4713 24.8632L47.4627 24.863H47.4541V25.863ZM46.3341 26.063L46.0178 25.1144L46.0077 25.1177L45.9977 25.1213L46.3341 26.063ZM45.2541 26.743L45.8088 27.5751L45.8744 27.5313L45.9323 27.4778L45.2541 26.743ZM44.8941 26.383L45.6012 27.0901L44.8941 26.383ZM46.0941 25.663L46.4103 26.6117L46.4251 26.6068L46.4398 26.6014L46.0941 25.663ZM52.4141 28.223L51.5362 28.7019L51.5417 28.712L51.5474 28.722L52.4141 28.223ZM52.4541 34.423L51.5966 33.9085L52.4541 34.423ZM50.4941 36.343L50.9871 37.2131L50.9962 37.2078L50.4941 36.343ZM37.8941 36.023C37.0674 36.023 36.3272 35.8349 35.6549 35.4662L34.6932 37.2199C35.6742 37.7578 36.7474 38.023 37.8941 38.023V36.023ZM35.6886 35.4855C35.0293 35.09 34.5071 34.5678 34.1116 33.9085L32.3966 34.9375C32.961 35.8783 33.7188 36.6361 34.6596 37.2005L35.6886 35.4855ZM34.1116 33.9085C33.7328 33.2773 33.5341 32.5513 33.5341 31.703H31.5341C31.5341 32.8815 31.8153 33.9688 32.3966 34.9375L34.1116 33.9085ZM33.5341 31.703V30.823H31.5341V31.703H33.5341ZM33.5341 30.823C33.5341 30.0279 33.7198 29.319 34.0841 28.6761L32.344 27.69C31.8017 28.6471 31.5341 29.6981 31.5341 30.823H33.5341ZM34.0716 28.6975C34.4719 28.0304 34.9867 27.5067 35.6214 27.1127L34.5667 25.4134C33.6548 25.9794 32.9163 26.7357 32.3566 27.6685L34.0716 28.6975ZM35.6421 27.0995C36.2461 26.7038 36.9209 26.503 37.6941 26.503V24.503C36.5473 24.503 35.4887 24.809 34.546 25.4266L35.6421 27.0995ZM38.6941 25.503V17.143H36.6941V25.503H38.6941ZM37.7211 16.1434C36.8961 16.1211 36.1916 15.9121 35.5814 15.5334L34.5267 17.2327C35.4632 17.8139 36.5187 18.1116 37.667 18.1427L37.7211 16.1434ZM35.5814 15.5334C34.9439 15.1377 34.4466 14.6282 34.0768 13.9973L32.3514 15.0088C32.8882 15.9245 33.6175 16.6684 34.5267 17.2327L35.5814 15.5334ZM34.0768 13.9973C33.7144 13.3792 33.5341 12.7141 33.5341 11.983H31.5341C31.5341 13.0653 31.807 14.0802 32.3514 15.0088L34.0768 13.9973ZM33.5341 11.983V11.103H31.5341V11.983H33.5341ZM33.5341 11.103C33.5341 10.2757 33.7222 9.57358 34.0768 8.96876L32.3514 7.95732C31.7992 8.89916 31.5341 9.957 31.5341 11.103H33.5341ZM34.0637 8.9904C34.4594 8.35292 34.9689 7.85559 35.5998 7.48574L34.5883 5.76034C33.6726 6.29716 32.9287 7.02649 32.3644 7.93568L34.0637 8.9904ZM35.6086 7.48053C36.2485 7.09658 36.9498 6.90304 37.7341 6.90304V4.90304C36.5983 4.90304 35.5396 5.1895 34.5796 5.76555L35.6086 7.48053ZM37.7341 6.90304H47.8141V4.90304H37.7341V6.90304ZM47.8141 6.90304C48.6306 6.90304 49.325 7.0992 49.9267 7.47268L50.9814 5.7734C50.0365 5.18688 48.9708 4.90304 47.8141 4.90304V6.90304ZM49.9611 7.49306C50.612 7.86196 51.1094 8.35133 51.4714 8.96876L53.1968 7.95732C52.652 7.02809 51.8961 6.29079 50.9471 5.75302L49.9611 7.49306ZM51.4844 8.9904C51.8579 9.59212 52.0541 10.2865 52.0541 11.103H54.0541C54.0541 9.94627 53.7702 8.88062 53.1837 7.93568L51.4844 8.9904ZM52.0541 11.103V11.983H54.0541V11.103H52.0541ZM52.0541 11.983C52.0541 12.7141 51.8737 13.3792 51.5114 13.9973L53.2368 15.0088C53.7811 14.0802 54.0541 13.0653 54.0541 11.983H52.0541ZM51.4985 14.02C51.1619 14.63 50.6771 15.131 50.0196 15.5255L51.0486 17.2405C51.991 16.6751 52.7329 15.9227 53.2496 14.9861L51.4985 14.02ZM50.0067 15.5334C49.4049 15.907 48.6767 16.1206 47.7884 16.1434L47.8397 18.1427C49.0315 18.1122 50.1166 17.8191 51.0614 17.2327L50.0067 15.5334ZM46.8141 17.143V23.903H48.8141V17.143H46.8141ZM46.8141 23.903C46.8141 23.8289 46.8333 23.5896 47.047 23.3759C47.2606 23.1623 47.4999 23.143 47.5741 23.143V25.143C47.8082 25.143 48.1675 25.0838 48.4612 24.7901C48.7548 24.4965 48.8141 24.1372 48.8141 23.903H46.8141ZM47.5741 23.143C47.6482 23.143 47.8875 23.1623 48.1012 23.3759C48.3148 23.5896 48.3341 23.8289 48.3341 23.903H46.3341C46.3341 24.1372 46.3933 24.4965 46.687 24.7901C46.9806 25.0838 47.3399 25.143 47.5741 25.143V23.143ZM48.3341 23.903V16.903H46.3341V23.903H48.3341ZM48.3341 16.903C48.3341 16.9373 48.3307 17.1491 48.1523 17.3632C47.9448 17.6123 47.6743 17.663 47.5341 17.663V15.663C47.2605 15.663 46.89 15.7538 46.6158 16.0829C46.3708 16.377 46.3341 16.7088 46.3341 16.903H48.3341ZM47.5341 17.663C49.225 17.663 50.6866 17.1319 51.8308 16.0203L50.4373 14.5858C49.7149 15.2875 48.7765 15.663 47.5341 15.663V17.663ZM51.8207 16.0301C52.9783 14.9367 53.5741 13.5681 53.5741 11.983H51.5741C51.5741 13.0113 51.2098 13.856 50.4474 14.576L51.8207 16.0301ZM53.5741 11.983V11.103H51.5741V11.983H53.5741ZM53.5741 11.103C53.5741 10.0533 53.3173 9.07564 52.7944 8.19324L51.0738 9.21284C51.4042 9.77044 51.5741 10.3928 51.5741 11.103H53.5741ZM52.7944 8.19324C52.2788 7.32331 51.5773 6.63642 50.6997 6.14888L49.7284 7.89719C50.2908 8.20965 50.736 8.64277 51.0738 9.21284L52.7944 8.19324ZM50.7239 6.16275C49.8415 5.63984 48.8638 5.38304 47.8141 5.38304V7.38304C48.5243 7.38304 49.1467 7.5529 49.7043 7.88333L50.7239 6.16275ZM47.8141 5.38304H37.7341V7.38304H47.8141V5.38304ZM37.7341 5.38304C36.1684 5.38304 34.7981 5.93694 33.6773 7.02576L35.0708 8.46032C35.8167 7.7358 36.6864 7.38304 37.7341 7.38304V5.38304ZM33.667 7.03593C32.5646 8.13832 32.0141 9.51629 32.0141 11.103H34.0141C34.0141 10.0231 34.3702 9.1611 35.0812 8.45015L33.667 7.03593ZM32.0141 11.103V11.983H34.0141V11.103H32.0141ZM32.0141 11.983C32.0141 13.5587 32.5892 14.9245 33.7173 16.0203L35.1108 14.5858C34.3723 13.8683 34.0141 13.0207 34.0141 11.983H32.0141ZM33.7173 16.0203C34.8542 17.1247 36.2851 17.663 37.9341 17.663V15.663C36.7563 15.663 35.8406 15.2947 35.1108 14.5858L33.7173 16.0203ZM37.9341 17.663C37.8599 17.663 37.6206 17.6438 37.407 17.4301C37.1933 17.2165 37.1741 16.9772 37.1741 16.903H39.1741C39.1741 16.6689 39.1148 16.3096 38.8212 16.0159C38.5275 15.7223 38.1682 15.663 37.9341 15.663V17.663ZM37.1741 16.903V25.743H39.1741V16.903H37.1741ZM37.1741 25.743C37.1741 25.6028 37.2249 25.3323 37.4739 25.1248C37.688 24.9464 37.8998 24.943 37.9341 24.943V26.943C38.1283 26.943 38.4601 26.9063 38.7542 26.6613C39.0833 26.3871 39.1741 26.0166 39.1741 25.743H37.1741ZM37.9341 24.943C36.8517 24.943 35.8443 25.2162 34.9351 25.7683L35.973 27.4778C36.5572 27.1232 37.2031 26.943 37.9341 26.943V24.943ZM34.9579 25.7548C34.0616 26.267 33.3392 26.9748 32.7993 27.8641L34.5089 28.902C34.8756 28.2979 35.3532 27.8324 35.9502 27.4913L34.9579 25.7548ZM32.7938 27.8732C32.2681 28.7603 32.0141 29.7524 32.0141 30.823H34.0141C34.0141 30.0803 34.1867 29.4457 34.5144 28.8928L32.7938 27.8732ZM32.0141 30.823V31.703H34.0141V30.823H32.0141ZM32.0141 31.703C32.0141 33.34 32.5758 34.759 33.707 35.8901L35.1212 34.4759C34.3857 33.7404 34.0141 32.8394 34.0141 31.703H32.0141ZM33.7274 35.9101C34.8791 36.9978 36.2872 37.543 37.8941 37.543V35.543C36.7809 35.543 35.869 35.1816 35.1007 34.456L33.7274 35.9101ZM37.8941 37.543H47.7741V35.543H37.8941V37.543ZM47.7741 37.543C49.4021 37.543 50.8178 37.001 51.9508 35.9003L50.5573 34.4658C49.8237 35.1784 48.9194 35.543 47.7741 35.543V37.543ZM51.9511 35.9C53.1124 34.771 53.6941 33.349 53.6941 31.703H51.6941C51.6941 32.8304 51.3157 33.7284 50.557 34.466L51.9511 35.9ZM53.6941 31.703V31.223H51.6941V31.703H53.6941ZM53.6941 31.223C53.6941 29.4214 53.1199 27.8747 51.9212 26.6759L50.507 28.0901C51.2815 28.8647 51.6941 29.878 51.6941 31.223H53.6941ZM51.9308 26.6857C50.7633 25.4857 49.2463 24.8938 47.4713 24.8632L47.4368 26.8629C48.7551 26.8856 49.7449 27.307 50.4973 28.0804L51.9308 26.6857ZM47.4541 24.863C46.9796 24.863 46.4985 24.9541 46.0178 25.1144L46.6503 27.0117C46.9696 26.9053 47.2352 26.863 47.4541 26.863V24.863ZM45.9977 25.1213C45.476 25.3076 45.0029 25.614 44.5758 26.0082L45.9323 27.4778C46.1986 27.2321 46.4455 27.0851 46.6704 27.0048L45.9977 25.1213ZM44.6994 25.911C44.7144 25.9009 44.8339 25.823 45.0341 25.823C45.2683 25.823 45.4538 25.9286 45.5612 26.0359L44.147 27.4501C44.361 27.6642 44.6665 27.823 45.0341 27.823C45.3675 27.823 45.6337 27.6918 45.8088 27.5751L44.6994 25.911ZM45.5612 26.0359C45.6639 26.1387 45.813 26.3676 45.7779 26.6835C45.7489 26.9451 45.6101 27.0813 45.6012 27.0901L44.187 25.6759C44.0447 25.8181 43.8326 26.081 43.7902 26.4626C43.7418 26.8984 43.9376 27.2408 44.147 27.4501L45.5612 26.0359ZM45.6012 27.0901C45.799 26.8923 46.06 26.7285 46.4103 26.6117L45.7778 24.7144C45.1681 24.9176 44.6291 25.2338 44.187 25.6759L45.6012 27.0901ZM46.4398 26.6014C46.872 26.4421 47.2053 26.383 47.4541 26.383V24.383C46.9028 24.383 46.3295 24.5106 45.7484 24.7247L46.4398 26.6014ZM47.4541 26.383C48.418 26.383 49.2238 26.5993 49.9035 27.0029L50.9246 25.2832C49.8977 24.6734 48.7301 24.383 47.4541 24.383V26.383ZM49.9035 27.0029C50.6008 27.4169 51.1413 27.9779 51.5362 28.7019L53.292 27.7442C52.7269 26.7082 51.934 25.8825 50.9246 25.2832L49.9035 27.0029ZM51.5474 28.722C51.9579 29.435 52.1741 30.2597 52.1741 31.223H54.1741C54.1741 29.9464 53.8835 28.7711 53.2807 27.7241L51.5474 28.722ZM52.1741 31.223V31.703H54.1741V31.223H52.1741ZM52.1741 31.703C52.1741 32.5513 51.9753 33.2773 51.5966 33.9085L53.3116 34.9375C53.8928 33.9688 54.1741 32.8815 54.1741 31.703H52.1741ZM51.5966 33.9085C51.2057 34.56 50.6762 35.0809 49.9919 35.4783L50.9962 37.2078C51.9653 36.6451 52.7424 35.8861 53.3116 34.9375L51.5966 33.9085ZM50.0011 35.473C49.3664 35.8327 48.6327 36.023 47.7741 36.023V38.023C48.9421 38.023 50.0218 37.7601 50.9871 37.2131L50.0011 35.473ZM47.7741 36.023H37.8941V38.023H47.7741V36.023ZM58.2647 36.223L57.7463 37.0783L57.7577 37.085L58.2647 36.223ZM56.1447 34.103L55.2895 34.6213L56.1447 34.103ZM55.9047 28.903L56.7772 29.3916L56.7812 29.3844L56.7852 29.3771L55.9047 28.903ZM57.1847 26.943L57.9722 27.5594L57.9744 27.5565L57.1847 26.943ZM64.4247 17.623L65.2144 18.2365L66.4678 16.623H64.4247V17.623ZM57.6647 16.863L57.1464 17.7182L57.1615 17.7274L57.1769 17.736L57.6647 16.863ZM55.5447 14.743L54.6827 15.2501L54.6895 15.2613L55.5447 14.743ZM54.7047 11.783L53.705 11.7587L53.7044 11.7833L53.705 11.808L54.7047 11.783ZM55.4647 8.82304L56.3426 9.30189V9.30189L55.4647 8.82304ZM57.5047 6.70304L58.023 7.55824V7.55824L57.5047 6.70304ZM78.6247 6.70304L78.1064 7.55824V7.55824L78.6247 6.70304ZM80.7447 8.82304L81.5999 8.30474L81.5999 8.30474L80.7447 8.82304ZM80.7847 14.623L79.918 14.1241L79.9131 14.1328L80.7847 14.623ZM78.9047 16.703L79.3519 17.5975L79.4147 17.5661L79.4724 17.5263L78.9047 16.703ZM78.6247 16.703L78.07 17.5351L78.07 17.5351L78.6247 16.703ZM78.6247 16.303L78.9409 17.2517L79.0719 17.2081L79.1862 17.1305L78.6247 16.303ZM80.3847 14.383L79.5146 13.89L79.5091 13.9L80.3847 14.383ZM80.3447 9.10304L79.4799 9.60517L79.4835 9.61138L79.4872 9.61754L80.3447 9.10304ZM78.3847 7.14304L77.8496 7.98786L77.8659 7.99816L77.8826 8.00783L78.3847 7.14304ZM56.6647 7.98304L57.3996 8.66137L57.408 8.652L56.6647 7.98304ZM55.1847 11.783L54.1848 11.7652L54.1844 11.7876L54.1851 11.8101L55.1847 11.783ZM55.9447 14.503L55.0799 15.0052L55.0896 15.0218L55.0999 15.0381L55.9447 14.503ZM57.9047 16.423L57.3902 17.2805L57.3963 17.2842L57.4026 17.2878L57.9047 16.423ZM65.0247 17.303L64.1303 17.7503L64.1706 17.8309L64.2247 17.903L65.0247 17.303ZM64.9447 17.743L65.733 18.3584L65.7461 18.3416L65.7584 18.3243L64.9447 17.743ZM57.5447 27.223L56.7564 26.6077L56.746 26.6211L56.736 26.6349L57.5447 27.223ZM56.3447 29.063L55.4809 28.5592L55.4729 28.5728L55.4654 28.5868L56.3447 29.063ZM56.5447 33.903L55.6799 34.4052L55.6896 34.4218L55.6999 34.4381L56.5447 33.903ZM58.5047 35.823L57.9902 36.6805L57.9963 36.6842L58.0026 36.6878L58.5047 35.823ZM80.3447 34.983L81.0702 35.6714L81.0788 35.6621L80.3447 34.983ZM80.3447 27.023L79.6022 27.6931L79.6106 27.7021L80.3447 27.023ZM73.6247 25.983L74.0719 26.8776L74.0841 26.8713L73.6247 25.983ZM71.7847 27.543L70.9731 26.9587L70.9687 26.965L71.7847 27.543ZM71.3847 27.303L70.5709 26.7218L70.5669 26.7275L71.3847 27.303ZM73.4247 25.543L73.8833 26.4317L73.4247 25.543ZM80.6647 26.703L79.9173 27.3674L79.9251 27.3762L79.9331 27.3848L80.6647 26.703ZM61.2247 36.023C60.3337 36.023 59.5224 35.8027 58.7717 35.3611L57.7577 37.085C58.8203 37.71 59.9824 38.023 61.2247 38.023V36.023ZM58.783 35.3678C58.0408 34.918 57.4497 34.3269 56.9999 33.5847L55.2895 34.6213C55.9063 35.6391 56.7286 36.4614 57.7464 37.0782L58.783 35.3678ZM56.9999 33.5847C56.5648 32.8669 56.3447 32.074 56.3447 31.183H54.3447C54.3447 32.4254 54.6579 33.5792 55.2895 34.6213L56.9999 33.5847ZM56.3447 31.183C56.3447 30.4804 56.4969 29.8922 56.7772 29.3916L55.0322 28.4144C54.5658 29.2472 54.3447 30.179 54.3447 31.183H56.3447ZM56.7852 29.3771C57.1319 28.7332 57.5275 28.1275 57.9722 27.5593L56.3972 26.3267C55.8818 26.9852 55.4241 27.6862 55.0242 28.4289L56.7852 29.3771ZM57.9744 27.5565L65.2144 18.2365L63.635 17.0096L56.395 26.3296L57.9744 27.5565ZM64.4247 16.623H60.6247V18.623H64.4247V16.623ZM60.6247 16.623C59.724 16.623 58.9059 16.4111 58.1525 15.9901L57.1769 17.736C58.2368 18.3283 59.392 18.623 60.6247 18.623V16.623ZM58.183 16.0078C57.4408 15.558 56.8497 14.9669 56.3999 14.2247L54.6895 15.2613C55.3063 16.2791 56.1286 17.1014 57.1464 17.7182L58.183 16.0078ZM56.4066 14.236C55.9607 13.4779 55.7269 12.6575 55.7044 11.758L53.705 11.808C53.7358 13.0419 54.062 14.1948 54.6828 15.2501L56.4066 14.236ZM55.7044 11.8074C55.7275 10.8583 55.9455 10.0298 56.3426 9.30189L54.5868 8.34419C54.0238 9.37625 53.7352 10.5211 53.705 11.7587L55.7044 11.8074ZM56.3426 9.30189C56.7357 8.58114 57.2898 8.00261 58.023 7.55824L56.9864 5.84784C55.9596 6.47014 55.1537 7.30494 54.5868 8.34419L56.3426 9.30189ZM58.023 7.55824C58.7223 7.13441 59.5766 6.90304 60.6247 6.90304V4.90304C59.2727 4.90304 58.0471 5.205 56.9864 5.84784L58.023 7.55824ZM60.6247 6.90304H75.6647V4.90304H60.6247V6.90304ZM75.6647 6.90304C76.5872 6.90304 77.3925 7.12561 78.1064 7.55824L79.143 5.84784C78.0968 5.2138 76.9289 4.90304 75.6647 4.90304V6.90304ZM78.1064 7.55824C78.8486 8.00806 79.4397 8.59914 79.8895 9.34134L81.5999 8.30474C80.983 7.28694 80.1608 6.46469 79.143 5.84784L78.1064 7.55824ZM79.8895 9.34134C80.3221 10.0552 80.5447 10.8606 80.5447 11.783H82.5447C82.5447 10.5189 82.2339 9.3509 81.5999 8.30474L79.8895 9.34134ZM80.5447 11.783C80.5447 12.6209 80.3375 13.3955 79.9181 14.1241L81.6513 15.122C82.2452 14.0906 82.5447 12.9719 82.5447 11.783H80.5447ZM79.9131 14.1328C79.5045 14.8592 78.9797 15.4366 78.337 15.8798L79.4724 17.5263C80.3764 16.9028 81.1049 16.0935 81.6563 15.1133L79.9131 14.1328ZM78.4575 15.8086C78.5056 15.7846 78.6091 15.743 78.7547 15.743C78.9117 15.743 79.0604 15.7916 79.1794 15.871L78.07 17.5351C78.524 17.8378 79.0145 17.7662 79.3519 17.5975L78.4575 15.8086ZM79.1794 15.871C79.2341 15.9075 79.3202 15.9785 79.3922 16.0985C79.4682 16.2253 79.5047 16.3673 79.5047 16.503H77.5047C77.5047 16.9881 77.7763 17.3393 78.07 17.5351L79.1794 15.871ZM79.5047 16.503C79.5047 16.5662 79.4939 16.718 79.3922 16.8875C79.2786 17.0768 79.1067 17.1965 78.9409 17.2517L78.3085 15.3544C78.0627 15.4363 77.8308 15.6026 77.6772 15.8585C77.5355 16.0947 77.5047 16.3332 77.5047 16.503H79.5047ZM79.1862 17.1305C80.0603 16.5374 80.7558 15.7805 81.2603 14.8661L79.5091 13.9C79.1602 14.5323 78.6824 15.0554 78.0632 15.4756L79.1862 17.1305ZM81.2547 14.8761C81.7946 13.9234 82.0647 12.8865 82.0647 11.783H80.0647C80.0647 12.5463 79.8815 13.2427 79.5147 13.89L81.2547 14.8761ZM82.0647 11.783C82.0647 10.626 81.7809 9.55302 81.2022 8.58854L79.4872 9.61754C79.8685 10.2531 80.0647 10.9667 80.0647 11.783H82.0647ZM81.2095 8.60091C80.6422 7.62388 79.8638 6.84555 78.8868 6.27825L77.8826 8.00783C78.5589 8.40053 79.0872 8.92886 79.4799 9.60517L81.2095 8.60091ZM78.9197 6.29822C77.9484 5.68302 76.8536 5.38304 75.6647 5.38304V7.38304C76.5024 7.38304 77.221 7.58973 77.8496 7.98786L78.9197 6.29822ZM75.6647 5.38304H60.6247V7.38304H75.6647V5.38304ZM60.6247 5.38304C58.7143 5.38304 57.1039 6.00022 55.9214 7.31408L57.408 8.652C58.1455 7.83253 59.1751 7.38304 60.6247 7.38304V5.38304ZM55.9299 7.30476C54.7938 8.53555 54.2156 10.0415 54.1848 11.7652L56.1845 11.8009C56.2071 10.538 56.6156 9.51053 57.3995 8.66132L55.9299 7.30476ZM54.1851 11.8101C54.2161 12.9582 54.5131 14.0291 55.0799 15.0052L56.8095 14.0009C56.4162 13.3237 56.2066 12.5812 56.1843 11.756L54.1851 11.8101ZM55.0999 15.0381C55.6887 15.9678 56.4544 16.719 57.3902 17.2805L58.4192 15.5655C57.755 15.167 57.214 14.6383 56.7895 13.968L55.0999 15.0381ZM57.4026 17.2878C58.3868 17.8593 59.4676 18.143 60.6247 18.143V16.143C59.8085 16.143 59.0759 15.9468 58.4068 15.5583L57.4026 17.2878ZM60.6247 18.143H64.7047V16.143H60.6247V18.143ZM64.7047 18.143C64.68 18.143 64.5821 18.1398 64.4575 18.0775C64.3173 18.0074 64.2004 17.8905 64.1303 17.7503L65.9191 16.8558C65.638 16.2936 65.0924 16.143 64.7047 16.143V18.143ZM64.2247 17.903C64.1598 17.8166 64.1105 17.712 64.0861 17.5965C64.0624 17.4837 64.0678 17.3858 64.0808 17.3142C64.1042 17.1854 64.1536 17.1301 64.131 17.1618L65.7584 18.3243C65.9383 18.0724 66.3301 17.377 65.8247 16.703L64.2247 17.903ZM64.1564 17.1277L56.7564 26.6077L58.333 27.8384L65.733 18.3584L64.1564 17.1277ZM56.736 26.6349C56.2891 27.2493 55.8708 27.8908 55.4809 28.5592L57.2085 29.5669C57.5652 28.9553 57.9469 28.3701 58.3534 27.8112L56.736 26.6349ZM55.4654 28.5868C55.0346 29.3822 54.8247 30.2541 54.8247 31.183H56.8247C56.8247 30.5653 56.9615 30.0239 57.224 29.5393L55.4654 28.5868ZM54.8247 31.183C54.8247 32.3401 55.1084 33.4209 55.6799 34.4052L57.4095 33.4009C57.021 32.7318 56.8247 31.9993 56.8247 31.183H54.8247ZM55.6999 34.4381C56.2887 35.3678 57.0544 36.119 57.9902 36.6805L59.0192 34.9655C58.355 34.567 57.814 34.0383 57.3895 33.368L55.6999 34.4381ZM58.0026 36.6878C58.9868 37.2593 60.0676 37.543 61.2247 37.543V35.543C60.4085 35.543 59.6759 35.3468 59.0068 34.9583L58.0026 36.6878ZM61.2247 37.543H76.0247V35.543H61.2247V37.543ZM76.0247 37.543C78.1004 37.543 79.8395 36.9684 81.0702 35.6713L79.6192 34.2948C78.8765 35.0777 77.7356 35.543 76.0247 35.543V37.543ZM81.0788 35.6621C82.2382 34.4087 82.8247 32.8988 82.8247 31.183H80.8247C80.8247 32.4006 80.4245 33.4241 79.6106 34.304L81.0788 35.6621ZM82.8247 31.183C82.8247 29.2714 82.2657 27.6272 81.0788 26.344L79.6106 27.7021C80.397 28.5522 80.8247 29.6813 80.8247 31.183H82.8247ZM81.0871 26.3531C79.86 24.9933 78.1151 24.383 76.0247 24.383V26.383C77.721 26.383 78.8561 26.8661 79.6023 27.693L81.0871 26.3531ZM76.0247 24.383C75.0296 24.383 74.0728 24.6254 73.1653 25.0948L74.0841 26.8713C74.7232 26.5407 75.3664 26.383 76.0247 26.383V24.383ZM73.1775 25.0886C72.2885 25.5331 71.5493 26.1585 70.9732 26.9587L72.5962 28.1273C72.9801 27.5942 73.4675 27.1796 74.0719 26.8775L73.1775 25.0886ZM70.9687 26.965C70.385 27.789 70.1047 28.7418 70.1047 29.783H72.1047C72.1047 29.1176 72.2777 28.5771 72.6007 28.1211L70.9687 26.965ZM70.1047 29.783C70.1047 29.7089 70.1239 29.4696 70.3376 29.2559C70.5513 29.0423 70.7905 29.023 70.8647 29.023V31.023C71.0988 31.023 71.4581 30.9638 71.7518 30.6701C72.0455 30.3765 72.1047 30.0172 72.1047 29.783H70.1047ZM70.8647 29.023C70.9388 29.023 71.1781 29.0423 71.3918 29.2559C71.6055 29.4696 71.6247 29.7089 71.6247 29.783H69.6247C69.6247 30.0172 69.6839 30.3765 69.9776 30.6701C70.2713 30.9638 70.6305 31.023 70.8647 31.023V29.023ZM71.6247 29.783C71.6247 29.0426 71.8217 28.4196 72.2025 27.8785L70.5669 26.7275C69.9343 27.6264 69.6247 28.6568 69.6247 29.783H71.6247ZM72.1984 27.8843C72.6382 27.2687 73.1957 26.7866 73.8833 26.4317L72.966 24.6544C72.0003 25.1529 71.1979 25.8441 70.571 26.7218L72.1984 27.8843ZM73.8833 26.4317C74.572 26.0762 75.2819 25.903 76.0247 25.903V23.903C74.9542 23.903 73.9307 24.1565 72.966 24.6544L73.8833 26.4317ZM76.0247 25.903C77.8461 25.903 79.0879 26.4344 79.9173 27.3674L81.4121 26.0387C80.1081 24.5717 78.2566 23.903 76.0247 23.903V25.903ZM79.9331 27.3848C80.8311 28.3485 81.3047 29.5871 81.3047 31.183H83.3047C83.3047 29.1523 82.685 27.4043 81.3963 26.0213L79.9331 27.3848ZM81.3047 31.183C81.3047 32.5289 80.855 33.6543 79.9409 34.613L81.3884 35.9931C82.661 34.6584 83.3047 33.0372 83.3047 31.183H81.3047ZM79.9409 34.613C79.0831 35.5127 77.8273 36.023 76.0247 36.023V38.023C78.2221 38.023 80.0596 37.3868 81.3884 35.9931L79.9409 34.613ZM76.0247 36.023H61.2247V38.023H76.0247V36.023Z" fill="black" mask="url(#path-1-outside-1_47_9265)"/>
<path d="M106.807 34.5863C104.996 35.7353 103.077 36.4717 101.049 36.7953C99.0206 37.1189 97.0438 37.0656 95.1184 36.6354C93.193 36.2053 91.3815 35.4122 89.6839 34.2561C87.9862 33.1 86.5628 31.6169 85.4137 29.8066C84.2647 27.9963 83.5283 26.0771 83.2047 24.0488C82.8811 22.0206 82.9344 20.0437 83.3645 18.1184C83.7947 16.193 84.5878 14.3815 85.7439 12.6838C86.9 10.9862 88.3831 9.56281 90.1934 8.41373C92.0037 7.26465 93.9229 6.5283 95.9512 6.2047C97.9794 5.88109 99.9563 5.93437 101.882 6.36454C103.807 6.79471 105.618 7.58782 107.316 8.74389C109.014 9.89995 110.437 11.3831 111.586 13.1934C112.735 15.0037 113.472 16.9229 113.795 18.9512C114.119 20.9794 114.066 22.9562 113.635 24.8816C113.205 26.807 112.412 28.6185 111.256 30.3161C110.1 32.0138 108.617 33.4372 106.807 34.5863ZM103.795 32.7342L102.175 30.1824C101.456 30.6393 100.677 30.7741 99.8389 30.5869C99.001 30.3997 98.3536 29.9462 97.8968 29.2265L97.0661 27.9179L94.5 28L91.5 27.5L89 27L86.7975 25.6236C86.9813 26.0577 87.1705 26.4884 87.3652 26.9156C87.5599 27.3428 87.7818 27.7527 88.031 28.1453C89.7062 30.7843 92.0406 32.5459 95.0344 33.4301C98.0282 34.3142 100.948 34.0822 103.795 32.7342ZM110.706 23.6657C110.978 22.1166 110.964 20.588 110.664 19.0798C110.365 17.5717 109.8 16.1633 108.969 14.8547C107.612 12.7173 105.779 11.1425 103.469 10.1304C101.159 9.11825 98.7621 8.84952 96.279 9.32418L96.6113 9.84763C97.0681 10.5674 97.2029 11.3462 97.0157 12.1841C96.8285 13.022 96.3751 13.6693 95.6553 14.1262L93.0381 15.7875L94.6994 18.4048C94.9347 18.7756 95.0066 19.166 94.915 19.576C94.8234 19.986 94.5922 20.3087 94.2214 20.5441L91.6042 22.2054L91 23L91.5 24L92.5 24.5L93.3771 24.2425L101.117 19.8387C101.488 19.6033 101.878 19.5314 102.288 19.6231C102.698 19.7147 103.021 19.9459 103.257 20.3166L105.749 24.2425L107.057 23.4119C107.624 23.0519 108.244 22.8956 108.917 22.9429C109.589 22.9903 110.186 23.2312 110.706 23.6657Z" fill="#1C1B1F"/>
<path d="M121.3 21.023C122.233 21.023 123.075 20.7939 123.825 20.3355C124.575 19.8772 125.167 19.273 125.6 18.523C125.017 18.0397 124.358 17.6689 123.625 17.4105C122.892 17.1522 122.117 17.023 121.3 17.023C120.483 17.023 119.708 17.1522 118.975 17.4105C118.242 17.6689 117.583 18.0397 117 18.523C117.433 19.273 118.025 19.8772 118.775 20.3355C119.525 20.7939 120.367 21.023 121.3 21.023ZM121.3 16.023C121.85 16.023 122.321 15.8272 122.712 15.4355C123.104 15.0439 123.3 14.573 123.3 14.023C123.3 13.473 123.104 13.0022 122.712 12.6105C122.321 12.2189 121.85 12.023 121.3 12.023C120.75 12.023 120.279 12.2189 119.887 12.6105C119.496 13.0022 119.3 13.473 119.3 14.023C119.3 14.573 119.496 15.0439 119.887 15.4355C120.279 15.8272 120.75 16.023 121.3 16.023Z" fill="#1C1B1F"/>
<path d="M111.77 19.8002C114.878 21.2863 117.543 22.244 119.766 22.6732C121.989 23.1025 123.786 23.0419 125.156 22.4915C127.259 21.6465 128.712 20.284 129.514 18.404C130.317 16.5241 130.327 14.6096 129.544 12.6605C128.761 10.7114 127.429 9.33566 125.549 8.53324C123.669 7.73082 121.678 7.75211 119.574 8.5971C118.204 9.1475 116.865 10.3467 115.556 12.1945C114.248 14.0424 112.986 16.5777 111.77 19.8002ZM108.702 21.0328C110.098 16.8639 111.621 13.5568 113.272 11.1118C114.924 8.66672 116.714 7.05658 118.644 6.28136C121.538 5.11854 124.219 5.12327 126.684 6.29556C129.15 7.46785 130.875 9.2794 131.859 11.7302C132.844 14.181 132.851 16.6825 131.882 19.2347C130.913 21.7869 128.981 23.6444 126.086 24.8072C124.156 25.5824 121.749 25.6584 118.866 25.0351C115.982 24.4118 112.594 23.0777 108.702 21.0328Z" fill="black"/>
</svg>
