<svg width="40" height="40" viewBox="0 0 40 40" fill="none" xmlns="http://www.w3.org/2000/svg">
<circle cx="20" cy="20" r="19.5" fill="#E4C59E" stroke="#803D3B"/>
<mask id="path-2-outside-1_222_1836" maskUnits="userSpaceOnUse" x="4" y="9" width="18" height="12" fill="black">
<rect fill="white" x="4" y="9" width="18" height="12"/>
<path d="M9.48198 20.13C9.28264 20.13 9.06164 20.091 8.81898 20.013C8.58498 19.935 8.35964 19.805 8.14298 19.623C7.93498 19.4323 7.75731 19.1767 7.60998 18.856L4.87998 12.694C4.63731 12.148 4.58531 11.6237 4.72398 11.121C4.87131 10.6183 5.20931 10.25 5.73798 10.016L5.94598 9.925C6.50931 9.67367 7.01631 9.67367 7.46698 9.925C7.92631 10.1677 8.26864 10.562 8.49398 11.108C8.51131 11.134 8.50698 11.16 8.48098 11.186C8.46364 11.2033 8.44198 11.212 8.41598 11.212C8.37264 11.212 8.34664 11.1947 8.33798 11.16C8.12131 10.6573 7.81364 10.2933 7.41498 10.068C7.01631 9.834 6.54831 9.834 6.01098 10.068L5.80298 10.159C5.30898 10.3757 5.00131 10.718 4.87998 11.186C4.75864 11.654 4.80631 12.1393 5.02298 12.642L7.75298 18.804C7.95231 19.246 8.21664 19.5537 8.54598 19.727C8.87531 19.8917 9.18731 19.974 9.48198 19.974C9.77664 19.974 10.093 19.8917 10.431 19.727C10.769 19.5623 11.0333 19.2547 11.224 18.804L13.811 12.655C14.0276 12.1523 14.0753 11.6713 13.954 11.212C13.8326 10.744 13.5293 10.3973 13.044 10.172L12.849 10.081C12.5023 9.91633 12.1686 9.86 11.848 9.912C11.5273 9.964 11.2456 10.0983 11.003 10.315C10.7603 10.5317 10.5696 10.809 10.431 11.147L9.23498 14.111C9.22631 14.137 9.20464 14.15 9.16998 14.15C9.10064 14.15 9.07464 14.1197 9.09198 14.059L10.288 11.095C10.4353 10.7223 10.6433 10.419 10.912 10.185C11.1806 9.951 11.484 9.808 11.822 9.756C12.1686 9.704 12.5283 9.76467 12.901 9.938L13.096 10.029C13.6246 10.2717 13.9583 10.64 14.097 11.134C14.2356 11.628 14.188 12.1523 13.954 12.707L11.367 18.856C11.2283 19.1853 11.0463 19.4453 10.821 19.636C10.6043 19.818 10.379 19.9437 10.145 20.013C9.91098 20.091 9.68998 20.13 9.48198 20.13ZM16.4106 20C16.0899 20 15.7952 19.9263 15.5266 19.779C15.2666 19.623 15.0586 19.415 14.9026 19.155C14.7466 18.895 14.6686 18.6003 14.6686 18.271V17.985C14.6686 17.673 14.7422 17.387 14.8896 17.127C15.0456 16.867 15.2492 16.659 15.5006 16.503C15.7519 16.3383 16.0336 16.256 16.3456 16.256V13.539C16.0249 13.5303 15.7389 13.448 15.4876 13.292C15.2362 13.136 15.0369 12.9323 14.8896 12.681C14.7422 12.4297 14.6686 12.1567 14.6686 11.862V11.576C14.6686 11.2553 14.7422 10.9693 14.8896 10.718C15.0456 10.4667 15.2492 10.2673 15.5006 10.12C15.7606 9.964 16.0466 9.886 16.3586 9.886H19.6346C19.9552 9.886 20.2412 9.964 20.4926 10.12C20.7526 10.2673 20.9562 10.4667 21.1036 10.718C21.2596 10.9693 21.3376 11.2553 21.3376 11.576V11.862C21.3376 12.1567 21.2639 12.4297 21.1166 12.681C20.9779 12.9323 20.7786 13.136 20.5186 13.292C20.2672 13.448 19.9726 13.5303 19.6346 13.539V15.736C19.6346 15.788 19.6086 15.814 19.5566 15.814C19.5046 15.814 19.4786 15.788 19.4786 15.736V13.461C19.4786 13.409 19.5002 13.383 19.5436 13.383C20.0202 13.383 20.4102 13.2357 20.7136 12.941C21.0256 12.6463 21.1816 12.2867 21.1816 11.862V11.576C21.1816 11.29 21.1122 11.03 20.9736 10.796C20.8349 10.562 20.6486 10.38 20.4146 10.25C20.1806 10.1113 19.9206 10.042 19.6346 10.042H16.3586C15.9339 10.042 15.5699 10.1893 15.2666 10.484C14.9719 10.7787 14.8246 11.1427 14.8246 11.576V11.862C14.8246 12.2867 14.9762 12.6463 15.2796 12.941C15.5829 13.2357 15.9642 13.383 16.4236 13.383C16.4756 13.383 16.5016 13.409 16.5016 13.461V16.334C16.5016 16.3773 16.4756 16.399 16.4236 16.399C16.1289 16.399 15.8602 16.4727 15.6176 16.62C15.3749 16.7587 15.1799 16.9493 15.0326 17.192C14.8939 17.426 14.8246 17.6903 14.8246 17.985V18.271C14.8246 18.7217 14.9762 19.0987 15.2796 19.402C15.5916 19.6967 15.9686 19.844 16.4106 19.844H19.6216C20.0722 19.844 20.4492 19.6967 20.7526 19.402C21.0646 19.0987 21.2206 18.7217 21.2206 18.271V18.115C21.2206 17.6037 21.0602 17.1877 20.7396 16.867C20.4276 16.5463 20.0202 16.3817 19.5176 16.373C19.4049 16.373 19.2836 16.3947 19.1536 16.438C19.0322 16.4813 18.9152 16.555 18.8026 16.659C18.7506 16.6937 18.7072 16.6937 18.6726 16.659C18.6379 16.6243 18.6422 16.5853 18.6856 16.542C18.7896 16.438 18.9196 16.36 19.0756 16.308C19.2402 16.2473 19.3876 16.217 19.5176 16.217C19.8816 16.217 20.2022 16.2993 20.4796 16.464C20.7569 16.6287 20.9736 16.854 21.1296 17.14C21.2942 17.426 21.3766 17.751 21.3766 18.115V18.271C21.3766 18.6003 21.2986 18.895 21.1426 19.155C20.9866 19.415 20.7742 19.623 20.5056 19.779C20.2456 19.9263 19.9509 20 19.6216 20H16.4106Z"/>
</mask>
<path d="M9.48198 20.13C9.28264 20.13 9.06164 20.091 8.81898 20.013C8.58498 19.935 8.35964 19.805 8.14298 19.623C7.93498 19.4323 7.75731 19.1767 7.60998 18.856L4.87998 12.694C4.63731 12.148 4.58531 11.6237 4.72398 11.121C4.87131 10.6183 5.20931 10.25 5.73798 10.016L5.94598 9.925C6.50931 9.67367 7.01631 9.67367 7.46698 9.925C7.92631 10.1677 8.26864 10.562 8.49398 11.108C8.51131 11.134 8.50698 11.16 8.48098 11.186C8.46364 11.2033 8.44198 11.212 8.41598 11.212C8.37264 11.212 8.34664 11.1947 8.33798 11.16C8.12131 10.6573 7.81364 10.2933 7.41498 10.068C7.01631 9.834 6.54831 9.834 6.01098 10.068L5.80298 10.159C5.30898 10.3757 5.00131 10.718 4.87998 11.186C4.75864 11.654 4.80631 12.1393 5.02298 12.642L7.75298 18.804C7.95231 19.246 8.21664 19.5537 8.54598 19.727C8.87531 19.8917 9.18731 19.974 9.48198 19.974C9.77664 19.974 10.093 19.8917 10.431 19.727C10.769 19.5623 11.0333 19.2547 11.224 18.804L13.811 12.655C14.0276 12.1523 14.0753 11.6713 13.954 11.212C13.8326 10.744 13.5293 10.3973 13.044 10.172L12.849 10.081C12.5023 9.91633 12.1686 9.86 11.848 9.912C11.5273 9.964 11.2456 10.0983 11.003 10.315C10.7603 10.5317 10.5696 10.809 10.431 11.147L9.23498 14.111C9.22631 14.137 9.20464 14.15 9.16998 14.15C9.10064 14.15 9.07464 14.1197 9.09198 14.059L10.288 11.095C10.4353 10.7223 10.6433 10.419 10.912 10.185C11.1806 9.951 11.484 9.808 11.822 9.756C12.1686 9.704 12.5283 9.76467 12.901 9.938L13.096 10.029C13.6246 10.2717 13.9583 10.64 14.097 11.134C14.2356 11.628 14.188 12.1523 13.954 12.707L11.367 18.856C11.2283 19.1853 11.0463 19.4453 10.821 19.636C10.6043 19.818 10.379 19.9437 10.145 20.013C9.91098 20.091 9.68998 20.13 9.48198 20.13ZM16.4106 20C16.0899 20 15.7952 19.9263 15.5266 19.779C15.2666 19.623 15.0586 19.415 14.9026 19.155C14.7466 18.895 14.6686 18.6003 14.6686 18.271V17.985C14.6686 17.673 14.7422 17.387 14.8896 17.127C15.0456 16.867 15.2492 16.659 15.5006 16.503C15.7519 16.3383 16.0336 16.256 16.3456 16.256V13.539C16.0249 13.5303 15.7389 13.448 15.4876 13.292C15.2362 13.136 15.0369 12.9323 14.8896 12.681C14.7422 12.4297 14.6686 12.1567 14.6686 11.862V11.576C14.6686 11.2553 14.7422 10.9693 14.8896 10.718C15.0456 10.4667 15.2492 10.2673 15.5006 10.12C15.7606 9.964 16.0466 9.886 16.3586 9.886H19.6346C19.9552 9.886 20.2412 9.964 20.4926 10.12C20.7526 10.2673 20.9562 10.4667 21.1036 10.718C21.2596 10.9693 21.3376 11.2553 21.3376 11.576V11.862C21.3376 12.1567 21.2639 12.4297 21.1166 12.681C20.9779 12.9323 20.7786 13.136 20.5186 13.292C20.2672 13.448 19.9726 13.5303 19.6346 13.539V15.736C19.6346 15.788 19.6086 15.814 19.5566 15.814C19.5046 15.814 19.4786 15.788 19.4786 15.736V13.461C19.4786 13.409 19.5002 13.383 19.5436 13.383C20.0202 13.383 20.4102 13.2357 20.7136 12.941C21.0256 12.6463 21.1816 12.2867 21.1816 11.862V11.576C21.1816 11.29 21.1122 11.03 20.9736 10.796C20.8349 10.562 20.6486 10.38 20.4146 10.25C20.1806 10.1113 19.9206 10.042 19.6346 10.042H16.3586C15.9339 10.042 15.5699 10.1893 15.2666 10.484C14.9719 10.7787 14.8246 11.1427 14.8246 11.576V11.862C14.8246 12.2867 14.9762 12.6463 15.2796 12.941C15.5829 13.2357 15.9642 13.383 16.4236 13.383C16.4756 13.383 16.5016 13.409 16.5016 13.461V16.334C16.5016 16.3773 16.4756 16.399 16.4236 16.399C16.1289 16.399 15.8602 16.4727 15.6176 16.62C15.3749 16.7587 15.1799 16.9493 15.0326 17.192C14.8939 17.426 14.8246 17.6903 14.8246 17.985V18.271C14.8246 18.7217 14.9762 19.0987 15.2796 19.402C15.5916 19.6967 15.9686 19.844 16.4106 19.844H19.6216C20.0722 19.844 20.4492 19.6967 20.7526 19.402C21.0646 19.0987 21.2206 18.7217 21.2206 18.271V18.115C21.2206 17.6037 21.0602 17.1877 20.7396 16.867C20.4276 16.5463 20.0202 16.3817 19.5176 16.373C19.4049 16.373 19.2836 16.3947 19.1536 16.438C19.0322 16.4813 18.9152 16.555 18.8026 16.659C18.7506 16.6937 18.7072 16.6937 18.6726 16.659C18.6379 16.6243 18.6422 16.5853 18.6856 16.542C18.7896 16.438 18.9196 16.36 19.0756 16.308C19.2402 16.2473 19.3876 16.217 19.5176 16.217C19.8816 16.217 20.2022 16.2993 20.4796 16.464C20.7569 16.6287 20.9736 16.854 21.1296 17.14C21.2942 17.426 21.3766 17.751 21.3766 18.115V18.271C21.3766 18.6003 21.2986 18.895 21.1426 19.155C20.9866 19.415 20.7742 19.623 20.5056 19.779C20.2456 19.9263 19.9509 20 19.6216 20H16.4106Z" fill="#803D3B"/>
<path d="M8.81898 20.013L8.66085 20.4874L8.66597 20.489L8.81898 20.013ZM8.14298 19.623L7.80511 19.9916L7.81309 19.9989L7.82138 20.0059L8.14298 19.623ZM7.60998 18.856L7.15279 19.0586L7.15564 19.0648L7.60998 18.856ZM4.87998 12.694L5.33712 12.4915L5.33688 12.4909L4.87998 12.694ZM4.72398 11.121L4.2441 10.9803L4.24198 10.988L4.72398 11.121ZM5.73798 10.016L5.53756 9.55792L5.5356 9.55879L5.73798 10.016ZM5.94598 9.925L6.14639 10.3831L6.1497 10.3816L5.94598 9.925ZM7.46698 9.925L7.22338 10.3618L7.23342 10.3671L7.46698 9.925ZM8.49398 11.108L8.03179 11.2987L8.0506 11.3443L8.07795 11.3854L8.49398 11.108ZM8.48098 11.186L8.83453 11.5396L8.83453 11.5396L8.48098 11.186ZM8.33798 11.16L8.82305 11.0387L8.8132 10.9994L8.79714 10.9621L8.33798 11.16ZM7.41498 10.068L7.16184 10.4993L7.16895 10.5033L7.41498 10.068ZM6.01098 10.068L5.81134 9.60958L5.81057 9.60992L6.01098 10.068ZM5.80298 10.159L5.60257 9.70092L5.60215 9.70111L5.80298 10.159ZM4.87998 11.186L4.39598 11.0605L4.87998 11.186ZM5.02298 12.642L4.56379 12.8399L4.56583 12.8445L5.02298 12.642ZM7.75298 18.804L7.29582 19.0065L7.29718 19.0096L7.75298 18.804ZM8.54598 19.727L8.31305 20.1696L8.32237 20.1742L8.54598 19.727ZM10.431 19.727L10.65 20.1765H10.65L10.431 19.727ZM11.224 18.804L11.6845 18.9988L11.6848 18.9979L11.224 18.804ZM13.811 12.655L13.3518 12.4571L13.3501 12.4611L13.811 12.655ZM13.954 11.212L13.47 11.3375L13.4706 11.3397L13.954 11.212ZM13.044 10.172L12.8325 10.6251L12.8334 10.6255L13.044 10.172ZM12.849 10.081L12.6344 10.5326L12.6375 10.5341L12.849 10.081ZM11.848 9.912L11.928 10.4056L11.928 10.4056L11.848 9.912ZM11.003 10.315L10.67 9.94203L11.003 10.315ZM10.431 11.147L9.96838 10.9572L9.9673 10.9599L10.431 11.147ZM9.23498 14.111L8.7713 13.9239L8.76552 13.9382L8.76063 13.9529L9.23498 14.111ZM9.09198 14.059L8.6283 13.8719L8.61845 13.8963L8.61122 13.9216L9.09198 14.059ZM10.288 11.095L10.7517 11.2821L10.753 11.2788L10.288 11.095ZM10.912 10.185L10.5836 9.80796L10.912 10.185ZM11.822 9.756L11.7478 9.26153L11.7459 9.26181L11.822 9.756ZM12.901 9.938L13.1124 9.48491L13.1118 9.48464L12.901 9.938ZM13.096 10.029L12.8845 10.4821L12.8874 10.4834L13.096 10.029ZM14.097 11.134L13.6156 11.2691L14.097 11.134ZM13.954 12.707L13.4933 12.5126L13.4931 12.5131L13.954 12.707ZM11.367 18.856L11.8278 19.05L11.8278 19.0499L11.367 18.856ZM10.821 19.636L11.1426 20.0189L11.1439 20.0177L10.821 19.636ZM10.145 20.013L10.0029 19.5336L9.99485 19.536L9.98686 19.5387L10.145 20.013ZM9.48198 19.63C9.34673 19.63 9.17827 19.6033 8.97198 19.537L8.66597 20.489C8.94501 20.5787 9.21856 20.63 9.48198 20.63V19.63ZM8.97709 19.5387C8.81099 19.4833 8.64002 19.3875 8.46457 19.2401L7.82138 20.0059C8.07926 20.2225 8.35896 20.3867 8.66086 20.4873L8.97709 19.5387ZM8.48084 19.2544C8.33255 19.1185 8.19059 18.9221 8.06432 18.6472L7.15564 19.0648C7.32404 19.4313 7.5374 19.7462 7.80511 19.9916L8.48084 19.2544ZM8.06712 18.6535L5.33712 12.4915L4.42283 12.8965L7.15283 19.0585L8.06712 18.6535ZM5.33688 12.4909C5.13398 12.0344 5.1025 11.6291 5.20597 11.254L4.24198 10.988C4.06812 11.6183 4.14064 12.2616 4.42307 12.8971L5.33688 12.4909ZM5.20379 11.2616C5.30512 10.9159 5.53049 10.6546 5.94035 10.4732L5.5356 9.55879C4.88813 9.84537 4.4375 10.3208 4.24416 10.9804L5.20379 11.2616ZM5.93839 10.4741L6.14639 10.3831L5.74557 9.46692L5.53757 9.55792L5.93839 10.4741ZM6.1497 10.3816C6.6008 10.1804 6.93809 10.2025 7.22344 10.3617L7.71051 9.48832C7.09453 9.14479 6.41782 9.16698 5.74226 9.46838L6.1497 10.3816ZM7.23342 10.3671C7.57549 10.5478 7.84453 10.845 8.03179 11.2987L8.95616 10.9173C8.69276 10.279 8.27713 9.78752 7.70054 9.4829L7.23342 10.3671ZM8.07795 11.3854C8.03006 11.3135 7.98803 11.1998 8.01053 11.0648C8.03107 10.9416 8.09501 10.8649 8.12742 10.8324L8.83453 11.5396C8.89294 11.4811 8.97205 11.3784 8.99692 11.2292C9.02376 11.0682 8.97523 10.9285 8.91 10.8306L8.07795 11.3854ZM8.12743 10.8324C8.16418 10.7957 8.21084 10.7633 8.26603 10.7413C8.32064 10.7194 8.37262 10.712 8.41598 10.712V11.712C8.56566 11.712 8.7173 11.6568 8.83453 11.5396L8.12743 10.8324ZM8.41598 10.712C8.45612 10.712 8.54609 10.7195 8.64132 10.783C8.74669 10.8532 8.80185 10.9539 8.82305 11.0387L7.85291 11.2813C7.88277 11.4007 7.95526 11.5274 8.08663 11.615C8.20786 11.6958 8.3325 11.712 8.41598 11.712V10.712ZM8.79714 10.9621C8.54596 10.3793 8.17224 9.92168 7.66101 9.63272L7.16895 10.5033C7.45504 10.665 7.69666 10.9353 7.87881 11.3579L8.79714 10.9621ZM7.66808 9.63679C7.09511 9.30049 6.45169 9.33072 5.81134 9.60958L6.21061 10.5264C6.64493 10.3373 6.93751 10.3675 7.16188 10.4992L7.66808 9.63679ZM5.81057 9.60992L5.60257 9.70092L6.00339 10.6171L6.21139 10.5261L5.81057 9.60992ZM5.60215 9.70111C4.98631 9.97121 4.56057 10.4257 4.39598 11.0605L5.36398 11.3115C5.44205 11.0103 5.63165 10.7801 6.00381 10.6169L5.60215 9.70111ZM4.39598 11.0605C4.24312 11.6501 4.30928 12.2494 4.56381 12.8399L5.48214 12.4441C5.30334 12.0293 5.27417 11.6579 5.36398 11.3115L4.39598 11.0605ZM4.56583 12.8445L7.29583 19.0065L8.21012 18.6015L5.48012 12.4395L4.56583 12.8445ZM7.29718 19.0096C7.52838 19.5222 7.85879 19.9303 8.3131 20.1695L8.77885 19.2845C8.57449 19.177 8.37624 18.9698 8.20877 18.5984L7.29718 19.0096ZM8.32237 20.1742C8.7042 20.3651 9.09275 20.474 9.48198 20.474V19.474C9.28187 19.474 9.04642 19.4182 8.76958 19.2798L8.32237 20.1742ZM9.48198 20.474C9.87049 20.474 10.262 20.3655 10.65 20.1765L10.212 19.2775C9.92397 19.4178 9.6828 19.474 9.48198 19.474V20.474ZM10.65 20.1765C11.1259 19.9446 11.4612 19.5265 11.6845 18.9988L10.7635 18.6092C10.6054 18.9828 10.412 19.1801 10.212 19.2775L10.65 20.1765ZM11.6848 18.9979L14.2718 12.8489L13.3501 12.4611L10.7631 18.6101L11.6848 18.9979ZM14.2701 12.8529C14.524 12.2639 14.5916 11.6679 14.4374 11.0843L13.4706 11.3397C13.5591 11.6748 13.5312 12.0408 13.3518 12.4571L14.2701 12.8529ZM14.438 11.0865C14.2748 10.4572 13.8591 9.99917 13.2545 9.71849L12.8334 10.6255C13.1996 10.7955 13.3905 11.0308 13.47 11.3375L14.438 11.0865ZM13.2554 9.71891L13.0604 9.62791L12.6375 10.5341L12.8325 10.6251L13.2554 9.71891ZM13.0635 9.62936C12.6422 9.42924 12.2059 9.34743 11.7679 9.41845L11.928 10.4056C12.1314 10.3726 12.3624 10.4034 12.6344 10.5326L13.0635 9.62936ZM11.7679 9.41845C11.353 9.48573 10.9836 9.66197 10.67 9.94203L11.336 10.688C11.5077 10.5347 11.7016 10.4423 11.928 10.4056L11.7679 9.41845ZM10.67 9.94203C10.3642 10.2151 10.1323 10.5578 9.96839 10.9572L10.8936 11.3368C11.007 11.0602 11.1564 10.8483 11.336 10.688L10.67 9.94203ZM9.9673 10.9599L8.7713 13.9239L9.69865 14.2981L10.8947 11.3341L9.9673 10.9599ZM8.76063 13.9529C8.7906 13.863 8.8545 13.7718 8.95498 13.7115C9.04558 13.6571 9.12906 13.65 9.16998 13.65V14.65C9.24556 14.65 9.35721 14.6364 9.46947 14.569C9.59162 14.4957 9.67069 14.385 9.70932 14.2691L8.76063 13.9529ZM9.16998 13.65C9.17916 13.65 9.34536 13.647 9.4781 13.8019C9.62685 13.9754 9.58247 14.1623 9.57274 14.1964L8.61122 13.9216C8.58415 14.0164 8.54411 14.2488 8.71885 14.4526C8.8776 14.6379 9.09146 14.65 9.16998 14.65V13.65ZM9.55565 14.2461L10.7517 11.2821L9.8243 10.9079L8.6283 13.8719L9.55565 14.2461ZM10.753 11.2788C10.8746 10.9712 11.0392 10.7372 11.2404 10.562L10.5836 9.80796C10.2474 10.1008 9.99603 10.4735 9.823 10.9112L10.753 11.2788ZM11.2404 10.562C11.4408 10.3874 11.6575 10.2872 11.898 10.2502L11.7459 9.26181C11.3104 9.32882 10.9205 9.51455 10.5836 9.80796L11.2404 10.562ZM11.8961 10.2505C12.13 10.2154 12.3907 10.2521 12.6901 10.3914L13.1118 9.48464C12.6659 9.27723 12.2072 9.19262 11.7478 9.26153L11.8961 10.2505ZM12.6895 10.3911L12.8845 10.4821L13.3074 9.57591L13.1124 9.48491L12.6895 10.3911ZM12.8874 10.4834C13.3026 10.674 13.5222 10.9363 13.6156 11.2691L14.5784 10.9989C14.3945 10.3437 13.9467 9.86932 13.3046 9.57458L12.8874 10.4834ZM13.6156 11.2691C13.7185 11.6359 13.6912 12.0434 13.4933 12.5126L14.4147 12.9014C14.6847 12.2612 14.7527 11.6201 14.5784 10.9989L13.6156 11.2691ZM13.4931 12.5131L10.9061 18.6621L11.8278 19.0499L14.4149 12.9009L13.4931 12.5131ZM10.9062 18.662C10.7917 18.9339 10.6519 19.1241 10.498 19.2543L11.1439 20.0177C11.4407 19.7666 11.6649 19.4368 11.8278 19.05L10.9062 18.662ZM10.4994 19.2531C10.327 19.398 10.1614 19.4866 10.0029 19.5336L10.287 20.4924C10.5965 20.4007 10.8816 20.238 11.1426 20.0189L10.4994 19.2531ZM9.98686 19.5387C9.79463 19.6027 9.62731 19.63 9.48198 19.63V20.63C9.75264 20.63 10.0273 20.5793 10.3031 20.4873L9.98686 19.5387ZM15.5266 19.779L15.2693 20.2077L15.2776 20.2127L15.2862 20.2174L15.5266 19.779ZM14.9026 19.155L15.3313 18.8978L14.9026 19.155ZM14.8896 17.127L14.4607 16.8697L14.4546 16.8805L14.8896 17.127ZM15.5006 16.503L15.7643 16.9279L15.7746 16.9212L15.5006 16.503ZM16.3456 16.256V16.756H16.8456V16.256H16.3456ZM16.3456 13.539H16.8456V13.0523L16.3591 13.0392L16.3456 13.539ZM15.4876 13.292L15.7513 12.8672L15.4876 13.292ZM14.8896 10.718L14.4646 10.4542L14.4582 10.4651L14.8896 10.718ZM15.5006 10.12L15.7534 10.5514L15.7578 10.5487L15.5006 10.12ZM20.4926 10.12L20.2289 10.5448L20.2374 10.5501L20.2461 10.555L20.4926 10.12ZM21.1036 10.718L20.6721 10.9709L20.6788 10.9817L21.1036 10.718ZM21.1166 12.681L20.6851 12.4281L20.6788 12.4395L21.1166 12.681ZM20.5186 13.292L20.2613 12.8632L20.2549 12.8672L20.5186 13.292ZM19.6346 13.539L19.6218 13.0392L19.1346 13.0517V13.539H19.6346ZM20.7136 12.941L20.3702 12.5775L20.3652 12.5824L20.7136 12.941ZM20.9736 10.796L20.5434 11.0509L20.9736 10.796ZM20.4146 10.25L20.1596 10.6803L20.1717 10.6871L20.4146 10.25ZM15.2666 10.484L14.9181 10.1253L14.913 10.1304L15.2666 10.484ZM15.2796 12.941L15.628 12.5824V12.5824L15.2796 12.941ZM15.6176 16.62L15.8657 17.0543L15.8771 17.0474L15.6176 16.62ZM15.0326 17.192L14.6052 16.9325L14.6024 16.9371L15.0326 17.192ZM15.2796 19.402L14.926 19.7556L14.9311 19.7606L14.9363 19.7655L15.2796 19.402ZM20.7526 19.402L21.101 19.7606L21.1011 19.7605L20.7526 19.402ZM20.7396 16.867L20.3812 17.2157L20.386 17.2206L20.7396 16.867ZM19.5176 16.373L19.5262 15.873H19.5176V16.373ZM19.1536 16.438L18.9954 15.9636L18.9854 15.9671L19.1536 16.438ZM18.8026 16.659L19.0799 17.075L19.1127 17.0532L19.1417 17.0264L18.8026 16.659ZM18.6856 16.542L19.0391 16.8956L19.0391 16.8956L18.6856 16.542ZM19.0756 16.308L19.2337 16.7823L19.2411 16.7799L19.2484 16.7772L19.0756 16.308ZM21.1296 17.14L20.6905 17.3795L20.6963 17.3895L21.1296 17.14ZM21.1426 19.155L20.7138 18.8978L21.1426 19.155ZM20.5056 19.779L20.7521 20.214L20.7566 20.2114L20.5056 19.779ZM16.4106 19.5C16.1699 19.5 15.9585 19.4456 15.767 19.3406L15.2862 20.2174C15.632 20.4071 16.0099 20.5 16.4106 20.5V19.5ZM15.7838 19.3503C15.5942 19.2365 15.4451 19.0874 15.3313 18.8978L14.4738 19.4122C14.672 19.7426 14.9389 20.0095 15.2693 20.2077L15.7838 19.3503ZM15.3313 18.8978C15.2259 18.7221 15.1686 18.5178 15.1686 18.271H14.1686C14.1686 18.6829 14.2672 19.0679 14.4738 19.4122L15.3313 18.8978ZM15.1686 18.271V17.985H14.1686V18.271H15.1686ZM15.1686 17.985C15.1686 17.7554 15.2218 17.555 15.3246 17.3735L14.4546 16.8805C14.2627 17.219 14.1686 17.5906 14.1686 17.985H15.1686ZM15.3183 17.3842C15.4345 17.1907 15.5822 17.0408 15.7643 16.9278L15.2369 16.0782C14.9163 16.2772 14.6567 16.5433 14.4608 16.8698L15.3183 17.3842ZM15.7746 16.9212C15.9412 16.812 16.127 16.756 16.3456 16.756V15.756C15.9402 15.756 15.5626 15.8646 15.2266 16.0848L15.7746 16.9212ZM16.8456 16.256V13.539H15.8456V16.256H16.8456ZM16.3591 13.0392C16.1193 13.0327 15.921 12.9725 15.7513 12.8672L15.2239 13.7168C15.5568 13.9235 15.9305 14.028 16.3321 14.0388L16.3591 13.0392ZM15.7513 12.8672C15.5678 12.7533 15.4265 12.6083 15.3209 12.4281L14.4582 12.9339C14.6473 13.2564 14.9046 13.5187 15.2239 13.7168L15.7513 12.8672ZM15.3209 12.4281C15.2191 12.2544 15.1686 12.0688 15.1686 11.862H14.1686C14.1686 12.2445 14.2654 12.6049 14.4582 12.9339L15.3209 12.4281ZM15.1686 11.862V11.576H14.1686V11.862H15.1686ZM15.1686 11.576C15.1686 11.335 15.223 11.1379 15.3209 10.9709L14.4582 10.4651C14.2615 10.8007 14.1686 11.1756 14.1686 11.576H15.1686ZM15.3144 10.9817C15.4282 10.7983 15.5733 10.6569 15.7534 10.5513L15.2477 9.68865C14.9252 9.87772 14.6629 10.1351 14.4648 10.4543L15.3144 10.9817ZM15.7578 10.5487C15.9378 10.4408 16.1344 10.386 16.3586 10.386V9.386C15.9587 9.386 15.5834 9.48723 15.2433 9.69125L15.7578 10.5487ZM16.3586 10.386H19.6346V9.386H16.3586V10.386ZM19.6346 10.386C19.8702 10.386 20.0634 10.4421 20.2289 10.5448L20.7563 9.69518C20.4191 9.48592 20.0403 9.386 19.6346 9.386V10.386ZM20.2461 10.555C20.4316 10.6601 20.5706 10.7975 20.6722 10.9709L21.5349 10.4651C21.3419 10.1359 21.0736 9.87454 20.7391 9.68499L20.2461 10.555ZM20.6788 10.9817C20.7815 11.1472 20.8376 11.3404 20.8376 11.576H21.8376C21.8376 11.1703 21.7376 10.7915 21.5284 10.4543L20.6788 10.9817ZM20.8376 11.576V11.862H21.8376V11.576H20.8376ZM20.8376 11.862C20.8376 12.0688 20.7871 12.2544 20.6852 12.4281L21.5479 12.9339C21.7407 12.6049 21.8376 12.2445 21.8376 11.862H20.8376ZM20.6788 12.4395C20.5852 12.6092 20.4501 12.75 20.2613 12.8633L20.7758 13.7207C21.107 13.522 21.3707 13.2555 21.5544 12.9225L20.6788 12.4395ZM20.2549 12.8672C20.0893 12.97 19.8839 13.0324 19.6218 13.0392L19.6474 14.0388C20.0613 14.0282 20.4452 13.926 20.7823 13.7168L20.2549 12.8672ZM19.1346 13.539V15.736H20.1346V13.539H19.1346ZM19.1346 15.736C19.1346 15.6849 19.1477 15.5548 19.2615 15.4409C19.3754 15.3271 19.5055 15.314 19.5566 15.314V16.314C19.6596 16.314 19.8288 16.2879 19.9686 16.1481C20.1085 16.0082 20.1346 15.8391 20.1346 15.736H19.1346ZM19.5566 15.314C19.6076 15.314 19.7378 15.3271 19.8516 15.4409C19.9655 15.5548 19.9786 15.6849 19.9786 15.736H18.9786C18.9786 15.8391 19.0047 16.0082 19.1445 16.1481C19.2844 16.2879 19.4535 16.314 19.5566 16.314V15.314ZM19.9786 15.736V13.461H18.9786V15.736H19.9786ZM19.9786 13.461C19.9786 13.4921 19.974 13.6085 19.8789 13.7226C19.7693 13.8541 19.6254 13.883 19.5436 13.883V12.883C19.4184 12.883 19.242 12.9249 19.1107 13.0824C18.994 13.2225 18.9786 13.3779 18.9786 13.461H19.9786ZM19.5436 13.883C20.1324 13.883 20.6532 13.6967 21.062 13.2996L20.3652 12.5824C20.1673 12.7746 19.9081 12.883 19.5436 12.883V13.883ZM21.0569 13.3045C21.4677 12.9165 21.6816 12.4259 21.6816 11.862H20.6816C20.6816 12.1475 20.5834 12.3761 20.3703 12.5775L21.0569 13.3045ZM21.6816 11.862V11.576H20.6816V11.862H21.6816ZM21.6816 11.576C21.6816 11.2051 21.5905 10.8563 21.4037 10.5411L20.5434 11.0509C20.634 11.2037 20.6816 11.3749 20.6816 11.576H21.6816ZM21.4037 10.5411C21.2206 10.2321 20.9702 9.98669 20.6574 9.81292L20.1717 10.6871C20.327 10.7733 20.4492 10.8919 20.5434 11.0509L21.4037 10.5411ZM20.6695 9.81985C20.3543 9.63307 20.0055 9.542 19.6346 9.542V10.542C19.8357 10.542 20.0069 10.5896 20.1597 10.6801L20.6695 9.81985ZM19.6346 9.542H16.3586V10.542H19.6346V9.542ZM16.3586 9.542C15.8044 9.542 15.3153 9.73962 14.9182 10.1254L15.615 10.8426C15.8245 10.639 16.0634 10.542 16.3586 10.542V9.542ZM14.913 10.1304C14.5205 10.523 14.3246 11.016 14.3246 11.576H15.3246C15.3246 11.2694 15.4233 11.0344 15.6201 10.8376L14.913 10.1304ZM14.3246 11.576V11.862H15.3246V11.576H14.3246ZM14.3246 11.862C14.3246 12.4211 14.5305 12.9104 14.9312 13.2996L15.628 12.5824C15.422 12.3823 15.3246 12.1522 15.3246 11.862H14.3246ZM14.9312 13.2996C15.3363 13.6932 15.8464 13.883 16.4236 13.883V12.883C16.082 12.883 15.8295 12.7781 15.628 12.5824L14.9312 13.2996ZM16.4236 13.883C16.3725 13.883 16.2424 13.8699 16.1285 13.7561C16.0147 13.6422 16.0016 13.5121 16.0016 13.461H17.0016C17.0016 13.3579 16.9755 13.1888 16.8356 13.0489C16.6958 12.9091 16.5266 12.883 16.4236 12.883V13.883ZM16.0016 13.461V16.334H17.0016V13.461H16.0016ZM16.0016 16.334C16.0016 16.2522 16.0305 16.1082 16.162 15.9986C16.276 15.9036 16.3925 15.899 16.4236 15.899V16.899C16.5067 16.899 16.6621 16.8836 16.8022 16.7669C16.9597 16.6356 17.0016 16.4591 17.0016 16.334H16.0016ZM16.4236 15.899C16.041 15.899 15.682 15.9959 15.3581 16.1926L15.8771 17.0474C16.0384 16.9494 16.2168 16.899 16.4236 16.899V15.899ZM15.3695 16.1859C15.052 16.3673 14.7958 16.6186 14.6052 16.9325L15.46 17.4515C15.564 17.2801 15.6978 17.15 15.8656 17.0541L15.3695 16.1859ZM14.6024 16.9371C14.4142 17.2547 14.3246 17.6084 14.3246 17.985H15.3246C15.3246 17.7723 15.3736 17.5974 15.4627 17.4469L14.6024 16.9371ZM14.3246 17.985V18.271H15.3246V17.985H14.3246ZM14.3246 18.271C14.3246 18.8468 14.5238 19.3533 14.926 19.7556L15.6331 19.0484C15.4287 18.844 15.3246 18.5965 15.3246 18.271H14.3246ZM14.9363 19.7655C15.3441 20.1507 15.8451 20.344 16.4106 20.344V19.344C16.092 19.344 15.839 19.2426 15.6229 19.0385L14.9363 19.7655ZM16.4106 20.344H19.6216V19.344H16.4106V20.344ZM19.6216 20.344C20.1929 20.344 20.6978 20.1523 21.101 19.7606L20.4042 19.0434C20.2007 19.241 19.9516 19.344 19.6216 19.344V20.344ZM21.1011 19.7605C21.5137 19.3593 21.7206 18.8513 21.7206 18.271H20.7206C20.7206 18.592 20.6154 18.838 20.404 19.0435L21.1011 19.7605ZM21.7206 18.271V18.115H20.7206V18.271H21.7206ZM21.7206 18.115C21.7206 17.4895 21.5198 16.9402 21.0931 16.5134L20.386 17.2206C20.6006 17.4352 20.7206 17.7178 20.7206 18.115H21.7206ZM21.0979 16.5183C20.6822 16.091 20.143 15.8837 19.5262 15.8731L19.509 16.8729C19.8974 16.8796 20.173 17.0017 20.3812 17.2157L21.0979 16.5183ZM19.5176 15.873C19.341 15.873 19.1658 15.9069 18.9955 15.9637L19.3117 16.9123C19.4013 16.8825 19.4688 16.873 19.5176 16.873V15.873ZM18.9854 15.9671C18.7898 16.037 18.6163 16.1505 18.4634 16.2916L19.1417 17.0264C19.2142 16.9595 19.2746 16.9257 19.3217 16.9089L18.9854 15.9671ZM18.5252 16.243C18.5468 16.2286 18.6193 16.185 18.7311 16.185C18.8599 16.185 18.9631 16.2424 19.0261 16.3054L18.319 17.0126C18.4167 17.1102 18.5589 17.185 18.7311 17.185C18.8861 17.185 19.0064 17.1241 19.0799 17.075L18.5252 16.243ZM19.0261 16.3054C19.0868 16.3661 19.1655 16.4906 19.1468 16.659C19.1311 16.8003 19.0552 16.8794 19.0391 16.8956L18.332 16.1884C18.2726 16.2479 18.1729 16.3682 18.1529 16.5485C18.1298 16.7559 18.2237 16.9172 18.319 17.0126L19.0261 16.3054ZM19.0391 16.8956C19.082 16.8526 19.1425 16.8127 19.2337 16.7823L18.9175 15.8337C18.6966 15.9073 18.4971 16.0234 18.332 16.1884L19.0391 16.8956ZM19.2484 16.7772C19.3759 16.7302 19.4632 16.717 19.5176 16.717V15.717C19.3119 15.717 19.1046 15.7644 18.9027 15.8388L19.2484 16.7772ZM19.5176 16.717C19.8035 16.717 20.0338 16.7808 20.2243 16.8939L20.7348 16.0341C20.3707 15.8179 19.9596 15.717 19.5176 15.717V16.717ZM20.2243 16.8939C20.4236 17.0123 20.5772 17.1714 20.6906 17.3794L21.5685 16.9006C21.37 16.5366 21.0902 16.2451 20.7348 16.0341L20.2243 16.8939ZM20.6963 17.3895C20.8128 17.592 20.8766 17.8293 20.8766 18.115H21.8766C21.8766 17.6727 21.7756 17.26 21.5629 16.8905L20.6963 17.3895ZM20.8766 18.115V18.271H21.8766V18.115H20.8766ZM20.8766 18.271C20.8766 18.5178 20.8192 18.7221 20.7138 18.8978L21.5713 19.4122C21.7779 19.0679 21.8766 18.6829 21.8766 18.271H20.8766ZM20.7138 18.8978C20.6024 19.0835 20.452 19.2319 20.2545 19.3466L20.7566 20.2114C21.0965 20.0141 21.3707 19.7465 21.5713 19.4122L20.7138 18.8978ZM20.2591 19.344C20.0817 19.4445 19.8735 19.5 19.6216 19.5V20.5C20.0283 20.5 20.4094 20.4082 20.7521 20.214L20.2591 19.344ZM19.6216 19.5H16.4106V20.5H19.6216V19.5Z" fill="#803D3B" mask="url(#path-2-outside-1_222_1836)"/>
<mask id="path-4-outside-2_222_1836" maskUnits="userSpaceOnUse" x="6" y="20" width="31" height="12" fill="black">
<rect fill="white" x="6" y="20" width="31" height="12"/>
<path d="M8.73629 31C8.38962 31 8.06895 30.9133 7.77429 30.74C7.48829 30.5667 7.25862 30.337 7.08529 30.051C6.91195 29.765 6.82529 29.4487 6.82529 29.102C6.82529 28.8247 6.88595 28.5777 7.00729 28.361C7.12862 28.1357 7.26729 27.9233 7.42329 27.724L9.77629 24.695H8.54129C8.19462 24.695 7.87395 24.6127 7.57929 24.448C7.29329 24.2747 7.06362 24.045 6.89029 23.759C6.71695 23.4643 6.62595 23.1437 6.61729 22.797C6.62595 22.4417 6.70829 22.121 6.86429 21.835C7.02029 21.549 7.24129 21.3193 7.52729 21.146C7.81329 20.9727 8.15129 20.886 8.54129 20.886H13.4293C13.7846 20.886 14.1053 20.9727 14.3913 21.146C14.6773 21.3193 14.907 21.549 15.0803 21.835C15.2536 22.121 15.3403 22.4417 15.3403 22.797C15.3403 23.1263 15.258 23.434 15.0933 23.72C14.9373 23.9973 14.7336 24.2227 14.4823 24.396C14.4476 24.4133 14.4173 24.4133 14.3913 24.396C14.3653 24.3787 14.3523 24.357 14.3523 24.331C14.3523 24.2963 14.3653 24.2747 14.3913 24.266C14.634 24.1013 14.8246 23.8933 14.9633 23.642C15.1106 23.382 15.1843 23.1003 15.1843 22.797C15.1843 22.4763 15.1063 22.186 14.9503 21.926C14.7943 21.6573 14.582 21.445 14.3133 21.289C14.0533 21.1243 13.7586 21.042 13.4293 21.042H8.54129C7.99529 21.042 7.56629 21.2153 7.25429 21.562C6.94229 21.9 6.78195 22.3117 6.77329 22.797C6.78195 23.1177 6.86429 23.4123 7.02029 23.681C7.18495 23.941 7.39729 24.149 7.65729 24.305C7.92595 24.461 8.22062 24.539 8.54129 24.539H9.86729C9.91929 24.539 9.95395 24.5563 9.97129 24.591C9.99729 24.6257 9.98862 24.6733 9.94529 24.734L7.54029 27.815C7.40162 28.0057 7.27162 28.205 7.15029 28.413C7.03762 28.621 6.98129 28.8507 6.98129 29.102C6.98129 29.4227 7.05929 29.7173 7.21529 29.986C7.37995 30.246 7.59229 30.454 7.85229 30.61C8.12095 30.766 8.41562 30.844 8.73629 30.844H13.5463C14.1616 30.844 14.6296 30.675 14.9503 30.337C15.271 29.9903 15.4313 29.5787 15.4313 29.102C15.4313 28.5473 15.271 28.0967 14.9503 27.75C14.6296 27.3947 14.1616 27.217 13.5463 27.217C13.2776 27.217 13.0176 27.282 12.7663 27.412C12.5236 27.5333 12.3243 27.7023 12.1683 27.919C12.021 28.127 11.9473 28.3697 11.9473 28.647C11.9473 28.699 11.9213 28.725 11.8693 28.725C11.8173 28.725 11.7913 28.699 11.7913 28.647C11.7913 28.3437 11.8736 28.075 12.0383 27.841C12.2116 27.5983 12.4326 27.4077 12.7013 27.269C12.97 27.1303 13.2516 27.061 13.5463 27.061C14.205 27.061 14.7076 27.256 15.0543 27.646C15.4096 28.0273 15.5873 28.5127 15.5873 29.102C15.5873 29.622 15.4096 30.0683 15.0543 30.441C14.699 30.8137 14.1963 31 13.5463 31H8.73629ZM20.7967 31.13C19.8087 31.13 18.9291 30.9133 18.1577 30.48C17.3951 30.0467 16.7971 29.4313 16.3637 28.634C15.9304 27.828 15.7137 26.879 15.7137 25.787C15.7137 24.747 15.9304 23.85 16.3637 23.096C16.7971 22.342 17.3951 21.7613 18.1577 21.354C18.9291 20.9467 19.8087 20.743 20.7967 20.743C21.5594 20.743 22.2441 20.873 22.8507 21.133C23.4661 21.3843 23.9904 21.7397 24.4237 22.199C24.8657 22.6583 25.2037 23.1957 25.4377 23.811C25.6717 24.4177 25.7887 25.0763 25.7887 25.787C25.7887 26.5497 25.6717 27.256 25.4377 27.906C25.2037 28.556 24.8657 29.1237 24.4237 29.609C23.9904 30.0943 23.4661 30.4713 22.8507 30.74C22.2441 31 21.5594 31.13 20.7967 31.13ZM15.8697 25.787C15.8697 26.853 16.0777 27.776 16.4937 28.556C16.9184 29.3273 17.5034 29.9253 18.2487 30.35C18.9941 30.766 19.8434 30.974 20.7967 30.974C21.7847 30.974 22.6384 30.7487 23.3577 30.298C24.0857 29.8473 24.6447 29.232 25.0347 28.452C25.4334 27.6633 25.6327 26.775 25.6327 25.787C25.6327 25.0937 25.5201 24.4523 25.2947 23.863C25.0694 23.2737 24.7444 22.758 24.3197 22.316C23.8951 21.8653 23.3837 21.5187 22.7857 21.276C22.1964 21.0247 21.5334 20.899 20.7967 20.899C19.8434 20.899 18.9941 21.0983 18.2487 21.497C17.5034 21.887 16.9184 22.4503 16.4937 23.187C16.0777 23.915 15.8697 24.7817 15.8697 25.787ZM31.3912 31.13C30.4032 31.13 29.5236 30.9133 28.7522 30.48C27.9896 30.0467 27.3916 29.4313 26.9582 28.634C26.5249 27.828 26.3082 26.879 26.3082 25.787C26.3082 24.747 26.5249 23.85 26.9582 23.096C27.3916 22.342 27.9896 21.7613 28.7522 21.354C29.5236 20.9467 30.4032 20.743 31.3912 20.743C32.1539 20.743 32.8386 20.873 33.4452 21.133C34.0606 21.3843 34.5849 21.7397 35.0182 22.199C35.4602 22.6583 35.7982 23.1957 36.0322 23.811C36.2662 24.4177 36.3832 25.0763 36.3832 25.787C36.3832 26.5497 36.2662 27.256 36.0322 27.906C35.7982 28.556 35.4602 29.1237 35.0182 29.609C34.5849 30.0943 34.0606 30.4713 33.4452 30.74C32.8386 31 32.1539 31.13 31.3912 31.13ZM26.4642 25.787C26.4642 26.853 26.6722 27.776 27.0882 28.556C27.5129 29.3273 28.0979 29.9253 28.8432 30.35C29.5886 30.766 30.4379 30.974 31.3912 30.974C32.3792 30.974 33.2329 30.7487 33.9522 30.298C34.6802 29.8473 35.2392 29.232 35.6292 28.452C36.0279 27.6633 36.2272 26.775 36.2272 25.787C36.2272 25.0937 36.1146 24.4523 35.8892 23.863C35.6639 23.2737 35.3389 22.758 34.9142 22.316C34.4896 21.8653 33.9782 21.5187 33.3802 21.276C32.7909 21.0247 32.1279 20.899 31.3912 20.899C30.4379 20.899 29.5886 21.0983 28.8432 21.497C28.0979 21.887 27.5129 22.4503 27.0882 23.187C26.6722 23.915 26.4642 24.7817 26.4642 25.787Z"/>
</mask>
<path d="M8.73629 31C8.38962 31 8.06895 30.9133 7.77429 30.74C7.48829 30.5667 7.25862 30.337 7.08529 30.051C6.91195 29.765 6.82529 29.4487 6.82529 29.102C6.82529 28.8247 6.88595 28.5777 7.00729 28.361C7.12862 28.1357 7.26729 27.9233 7.42329 27.724L9.77629 24.695H8.54129C8.19462 24.695 7.87395 24.6127 7.57929 24.448C7.29329 24.2747 7.06362 24.045 6.89029 23.759C6.71695 23.4643 6.62595 23.1437 6.61729 22.797C6.62595 22.4417 6.70829 22.121 6.86429 21.835C7.02029 21.549 7.24129 21.3193 7.52729 21.146C7.81329 20.9727 8.15129 20.886 8.54129 20.886H13.4293C13.7846 20.886 14.1053 20.9727 14.3913 21.146C14.6773 21.3193 14.907 21.549 15.0803 21.835C15.2536 22.121 15.3403 22.4417 15.3403 22.797C15.3403 23.1263 15.258 23.434 15.0933 23.72C14.9373 23.9973 14.7336 24.2227 14.4823 24.396C14.4476 24.4133 14.4173 24.4133 14.3913 24.396C14.3653 24.3787 14.3523 24.357 14.3523 24.331C14.3523 24.2963 14.3653 24.2747 14.3913 24.266C14.634 24.1013 14.8246 23.8933 14.9633 23.642C15.1106 23.382 15.1843 23.1003 15.1843 22.797C15.1843 22.4763 15.1063 22.186 14.9503 21.926C14.7943 21.6573 14.582 21.445 14.3133 21.289C14.0533 21.1243 13.7586 21.042 13.4293 21.042H8.54129C7.99529 21.042 7.56629 21.2153 7.25429 21.562C6.94229 21.9 6.78195 22.3117 6.77329 22.797C6.78195 23.1177 6.86429 23.4123 7.02029 23.681C7.18495 23.941 7.39729 24.149 7.65729 24.305C7.92595 24.461 8.22062 24.539 8.54129 24.539H9.86729C9.91929 24.539 9.95395 24.5563 9.97129 24.591C9.99729 24.6257 9.98862 24.6733 9.94529 24.734L7.54029 27.815C7.40162 28.0057 7.27162 28.205 7.15029 28.413C7.03762 28.621 6.98129 28.8507 6.98129 29.102C6.98129 29.4227 7.05929 29.7173 7.21529 29.986C7.37995 30.246 7.59229 30.454 7.85229 30.61C8.12095 30.766 8.41562 30.844 8.73629 30.844H13.5463C14.1616 30.844 14.6296 30.675 14.9503 30.337C15.271 29.9903 15.4313 29.5787 15.4313 29.102C15.4313 28.5473 15.271 28.0967 14.9503 27.75C14.6296 27.3947 14.1616 27.217 13.5463 27.217C13.2776 27.217 13.0176 27.282 12.7663 27.412C12.5236 27.5333 12.3243 27.7023 12.1683 27.919C12.021 28.127 11.9473 28.3697 11.9473 28.647C11.9473 28.699 11.9213 28.725 11.8693 28.725C11.8173 28.725 11.7913 28.699 11.7913 28.647C11.7913 28.3437 11.8736 28.075 12.0383 27.841C12.2116 27.5983 12.4326 27.4077 12.7013 27.269C12.97 27.1303 13.2516 27.061 13.5463 27.061C14.205 27.061 14.7076 27.256 15.0543 27.646C15.4096 28.0273 15.5873 28.5127 15.5873 29.102C15.5873 29.622 15.4096 30.0683 15.0543 30.441C14.699 30.8137 14.1963 31 13.5463 31H8.73629ZM20.7967 31.13C19.8087 31.13 18.9291 30.9133 18.1577 30.48C17.3951 30.0467 16.7971 29.4313 16.3637 28.634C15.9304 27.828 15.7137 26.879 15.7137 25.787C15.7137 24.747 15.9304 23.85 16.3637 23.096C16.7971 22.342 17.3951 21.7613 18.1577 21.354C18.9291 20.9467 19.8087 20.743 20.7967 20.743C21.5594 20.743 22.2441 20.873 22.8507 21.133C23.4661 21.3843 23.9904 21.7397 24.4237 22.199C24.8657 22.6583 25.2037 23.1957 25.4377 23.811C25.6717 24.4177 25.7887 25.0763 25.7887 25.787C25.7887 26.5497 25.6717 27.256 25.4377 27.906C25.2037 28.556 24.8657 29.1237 24.4237 29.609C23.9904 30.0943 23.4661 30.4713 22.8507 30.74C22.2441 31 21.5594 31.13 20.7967 31.13ZM15.8697 25.787C15.8697 26.853 16.0777 27.776 16.4937 28.556C16.9184 29.3273 17.5034 29.9253 18.2487 30.35C18.9941 30.766 19.8434 30.974 20.7967 30.974C21.7847 30.974 22.6384 30.7487 23.3577 30.298C24.0857 29.8473 24.6447 29.232 25.0347 28.452C25.4334 27.6633 25.6327 26.775 25.6327 25.787C25.6327 25.0937 25.5201 24.4523 25.2947 23.863C25.0694 23.2737 24.7444 22.758 24.3197 22.316C23.8951 21.8653 23.3837 21.5187 22.7857 21.276C22.1964 21.0247 21.5334 20.899 20.7967 20.899C19.8434 20.899 18.9941 21.0983 18.2487 21.497C17.5034 21.887 16.9184 22.4503 16.4937 23.187C16.0777 23.915 15.8697 24.7817 15.8697 25.787ZM31.3912 31.13C30.4032 31.13 29.5236 30.9133 28.7522 30.48C27.9896 30.0467 27.3916 29.4313 26.9582 28.634C26.5249 27.828 26.3082 26.879 26.3082 25.787C26.3082 24.747 26.5249 23.85 26.9582 23.096C27.3916 22.342 27.9896 21.7613 28.7522 21.354C29.5236 20.9467 30.4032 20.743 31.3912 20.743C32.1539 20.743 32.8386 20.873 33.4452 21.133C34.0606 21.3843 34.5849 21.7397 35.0182 22.199C35.4602 22.6583 35.7982 23.1957 36.0322 23.811C36.2662 24.4177 36.3832 25.0763 36.3832 25.787C36.3832 26.5497 36.2662 27.256 36.0322 27.906C35.7982 28.556 35.4602 29.1237 35.0182 29.609C34.5849 30.0943 34.0606 30.4713 33.4452 30.74C32.8386 31 32.1539 31.13 31.3912 31.13ZM26.4642 25.787C26.4642 26.853 26.6722 27.776 27.0882 28.556C27.5129 29.3273 28.0979 29.9253 28.8432 30.35C29.5886 30.766 30.4379 30.974 31.3912 30.974C32.3792 30.974 33.2329 30.7487 33.9522 30.298C34.6802 29.8473 35.2392 29.232 35.6292 28.452C36.0279 27.6633 36.2272 26.775 36.2272 25.787C36.2272 25.0937 36.1146 24.4523 35.8892 23.863C35.6639 23.2737 35.3389 22.758 34.9142 22.316C34.4896 21.8653 33.9782 21.5187 33.3802 21.276C32.7909 21.0247 32.1279 20.899 31.3912 20.899C30.4379 20.899 29.5886 21.0983 28.8432 21.497C28.0979 21.887 27.5129 22.4503 27.0882 23.187C26.6722 23.915 26.4642 24.7817 26.4642 25.787Z" fill="#803D3B"/>
<path d="M7.77429 30.74L7.51511 31.1676L7.52078 31.171L7.77429 30.74ZM7.08529 30.051L6.65769 30.3102H6.65769L7.08529 30.051ZM7.00729 28.361L7.4436 28.6053L7.44752 28.5981L7.00729 28.361ZM7.42329 27.724L7.81704 28.0322L7.81814 28.0307L7.42329 27.724ZM9.77629 24.695L10.1711 25.0017L10.7978 24.195H9.77629V24.695ZM7.57929 24.448L7.32013 24.8756L7.32768 24.8802L7.33537 24.8845L7.57929 24.448ZM6.89029 23.759L6.45928 24.0125L6.46269 24.0182L6.89029 23.759ZM6.61729 22.797L6.11743 22.7848L6.11713 22.7972L6.11744 22.8095L6.61729 22.797ZM6.86429 21.835L7.30323 22.0744L6.86429 21.835ZM7.52729 21.146L7.78644 21.5736H7.78644L7.52729 21.146ZM14.3913 21.146L14.1321 21.5736H14.1321L14.3913 21.146ZM15.0803 21.835L15.5079 21.5758L15.0803 21.835ZM15.0933 23.72L14.66 23.4705L14.6575 23.4749L15.0933 23.72ZM14.4823 24.396L14.7059 24.8432L14.7373 24.8275L14.7662 24.8076L14.4823 24.396ZM14.3913 24.396L14.1139 24.812L14.1139 24.812L14.3913 24.396ZM14.3913 24.266L14.5494 24.7403L14.6149 24.7185L14.672 24.6797L14.3913 24.266ZM14.9633 23.642L14.5282 23.3955L14.5255 23.4005L14.9633 23.642ZM14.9503 21.926L14.5178 22.1771L14.5215 22.1832L14.9503 21.926ZM14.3133 21.289L14.0458 21.7114L14.0539 21.7166L14.0622 21.7214L14.3133 21.289ZM7.25429 21.562L7.62172 21.9012L7.62593 21.8965L7.25429 21.562ZM6.77329 22.797L6.27337 22.7881L6.27316 22.7993L6.27347 22.8105L6.77329 22.797ZM7.02029 23.681L6.58789 23.9321L6.59273 23.9404L6.59788 23.9485L7.02029 23.681ZM7.65729 24.305L7.40001 24.7338L7.40622 24.7374L7.65729 24.305ZM9.97129 24.591L9.52407 24.8146L9.54423 24.8549L9.57129 24.891L9.97129 24.591ZM9.94529 24.734L10.3394 25.0417L10.346 25.0333L10.3522 25.0246L9.94529 24.734ZM7.54029 27.815L7.14615 27.5073L7.14092 27.514L7.13592 27.5209L7.54029 27.815ZM7.15029 28.413L6.7184 28.1611L6.71441 28.1679L6.71064 28.1749L7.15029 28.413ZM7.21529 29.986L6.78289 30.2371L6.78773 30.2454L6.79288 30.2535L7.21529 29.986ZM7.85229 30.61L7.59501 31.0388L7.60122 31.0424L7.85229 30.61ZM14.9503 30.337L15.313 30.6812L15.3173 30.6765L14.9503 30.337ZM14.9503 27.75L14.5791 28.085L14.5832 28.0895L14.9503 27.75ZM12.7663 27.412L12.9899 27.8593L12.996 27.8561L12.7663 27.412ZM12.1683 27.919L11.7625 27.6268L11.7603 27.63L12.1683 27.919ZM12.0383 27.841L11.6314 27.5504L11.6294 27.5533L12.0383 27.841ZM12.7013 27.269L12.9306 27.7133H12.9306L12.7013 27.269ZM15.0543 27.646L14.6805 27.9783L14.6885 27.9869L15.0543 27.646ZM8.73629 30.5C8.47745 30.5 8.2445 30.4365 8.0278 30.309L7.52078 31.171C7.89341 31.3902 8.30179 31.5 8.73629 31.5V30.5ZM8.03344 30.3124C7.81634 30.1808 7.64446 30.0089 7.51288 29.7918L6.65769 30.3102C6.87278 30.6651 7.16023 30.9525 7.51513 31.1676L8.03344 30.3124ZM7.51288 29.7918C7.3887 29.5869 7.32529 29.3608 7.32529 29.102H6.32529C6.32529 29.5365 6.43521 29.9431 6.65769 30.3102L7.51288 29.7918ZM7.32529 29.102C7.32529 28.9 7.36872 28.7389 7.44354 28.6053L6.57103 28.1167C6.40319 28.4164 6.32529 28.7493 6.32529 29.102H7.32529ZM7.44752 28.5981C7.55555 28.3974 7.67871 28.2089 7.81704 28.0322L7.02953 27.4158C6.85586 27.6378 6.70168 27.8739 6.56705 28.124L7.44752 28.5981ZM7.81814 28.0307L10.1711 25.0017L9.38143 24.3883L7.02843 27.4173L7.81814 28.0307ZM9.77629 24.195H8.54129V25.195H9.77629V24.195ZM8.54129 24.195C8.27761 24.195 8.04125 24.1334 7.8232 24.0115L7.33537 24.8845C7.70666 25.092 8.11163 25.195 8.54129 25.195V24.195ZM7.83844 24.0204C7.62134 23.8888 7.44946 23.7169 7.31788 23.4998L6.46269 24.0182C6.67778 24.3731 6.96523 24.6605 7.32013 24.8756L7.83844 24.0204ZM7.32125 23.5055C7.19161 23.2851 7.12371 23.0476 7.11713 22.7845L6.11744 22.8095C6.1282 23.2398 6.24229 23.6436 6.45932 24.0125L7.32125 23.5055ZM7.11714 22.8092C7.12404 22.526 7.1887 22.2844 7.30323 22.0744L6.42534 21.5956C6.22787 21.9576 6.12786 22.3573 6.11743 22.7848L7.11714 22.8092ZM7.30323 22.0744C7.4158 21.868 7.57383 21.7025 7.78644 21.5736L7.26813 20.7184C6.90874 20.9362 6.62477 21.23 6.42534 21.5956L7.30323 22.0744ZM7.78644 21.5736C7.98209 21.455 8.22726 21.386 8.54129 21.386V20.386C8.07531 20.386 7.64448 20.4903 7.26813 20.7184L7.78644 21.5736ZM8.54129 21.386H13.4293V20.386H8.54129V21.386ZM13.4293 21.386C13.6992 21.386 13.9292 21.4506 14.1321 21.5736L14.6504 20.7184C14.2814 20.4947 13.87 20.386 13.4293 20.386V21.386ZM14.1321 21.5736C14.3492 21.7052 14.5211 21.8771 14.6527 22.0942L15.5079 21.5758C15.2928 21.2209 15.0053 20.9335 14.6504 20.7184L14.1321 21.5736ZM14.6527 22.0942C14.7757 22.2971 14.8403 22.5271 14.8403 22.797H15.8403C15.8403 22.3562 15.7316 21.9449 15.5079 21.5758L14.6527 22.0942ZM14.8403 22.797C14.8403 23.0386 14.781 23.2602 14.66 23.4705L15.5266 23.9695C15.7349 23.6078 15.8403 23.2141 15.8403 22.797H14.8403ZM14.6575 23.4749C14.5372 23.6888 14.3844 23.8561 14.1984 23.9844L14.7662 24.8076C15.0828 24.5892 15.3374 24.3059 15.5291 23.9651L14.6575 23.4749ZM14.2587 23.9488C14.2921 23.9321 14.3526 23.909 14.4335 23.909C14.5202 23.909 14.6021 23.9356 14.6686 23.98L14.1139 24.812C14.3269 24.954 14.5559 24.9182 14.7059 24.8432L14.2587 23.9488ZM14.6686 23.98C14.703 24.0029 14.7513 24.0437 14.7908 24.1095C14.8323 24.1787 14.8523 24.2561 14.8523 24.331H13.8523C13.8523 24.5595 13.9811 24.7235 14.1139 24.812L14.6686 23.98ZM14.8523 24.331C14.8523 24.3719 14.8451 24.4554 14.7908 24.546C14.7305 24.6465 14.6393 24.7104 14.5494 24.7403L14.2332 23.7917C14.1173 23.8303 14.0066 23.9094 13.9333 24.0315C13.8659 24.1438 13.8523 24.2554 13.8523 24.331H14.8523ZM14.672 24.6797C14.9784 24.4718 15.2235 24.2054 15.4011 23.8835L14.5255 23.4005C14.4257 23.5813 14.2895 23.7308 14.1105 23.8523L14.672 24.6797ZM15.3983 23.8885C15.5889 23.5522 15.6843 23.1854 15.6843 22.797H14.6843C14.6843 23.0153 14.6323 23.2118 14.5283 23.3955L15.3983 23.8885ZM15.6843 22.797C15.6843 22.3911 15.5844 22.011 15.379 21.6688L14.5215 22.1832C14.6282 22.361 14.6843 22.5615 14.6843 22.797H15.6843ZM15.3827 21.6749C15.183 21.3311 14.9082 21.0563 14.5644 20.8566L14.0622 21.7214C14.2557 21.8337 14.4055 21.9836 14.5179 22.1771L15.3827 21.6749ZM14.5808 20.8666C14.2351 20.6477 13.8464 20.542 13.4293 20.542V21.542C13.6708 21.542 13.8714 21.601 14.0458 21.7114L14.5808 20.8666ZM13.4293 20.542H8.54129V21.542H13.4293V20.542ZM8.54129 20.542C7.88009 20.542 7.30587 20.7573 6.88264 21.2275L7.62593 21.8965C7.8267 21.6734 8.11048 21.542 8.54129 21.542V20.542ZM6.88688 21.2229C6.48683 21.6563 6.28409 22.1875 6.27337 22.7881L7.27321 22.8059C7.27982 22.4358 7.39774 22.1437 7.62169 21.9011L6.88688 21.2229ZM6.27347 22.8105C6.28432 23.2119 6.38851 23.5887 6.58789 23.9321L7.45268 23.4299C7.34006 23.236 7.27959 23.0234 7.2731 22.7835L6.27347 22.8105ZM6.59788 23.9485C6.80362 24.2734 7.07213 24.537 7.40004 24.7337L7.91453 23.8763C7.72244 23.761 7.56628 23.6086 7.44269 23.4135L6.59788 23.9485ZM7.40622 24.7374C7.75367 24.9391 8.1354 25.039 8.54129 25.039V24.039C8.30584 24.039 8.09823 23.9829 7.90835 23.8726L7.40622 24.7374ZM8.54129 25.039H9.86729V24.039H8.54129V25.039ZM9.86729 25.039C9.84096 25.039 9.78033 25.035 9.70868 24.9992C9.62925 24.9595 9.56379 24.894 9.52407 24.8146L10.4185 24.3674C10.2873 24.105 10.0332 24.039 9.86729 24.039V25.039ZM9.57129 24.891C9.49045 24.7832 9.47504 24.6585 9.49235 24.5633C9.50638 24.4861 9.53809 24.4438 9.53842 24.4434L10.3522 25.0246C10.4188 24.9313 10.61 24.6093 10.3713 24.291L9.57129 24.891ZM9.55115 24.4263L7.14615 27.5073L7.93442 28.1227L10.3394 25.0417L9.55115 24.4263ZM7.13592 27.5209C6.98717 27.7254 6.84801 27.9389 6.7184 28.1611L7.58217 28.6649C7.69523 28.4711 7.81607 28.2859 7.94465 28.1091L7.13592 27.5209ZM6.71064 28.1749C6.55589 28.4606 6.48129 28.7729 6.48129 29.102H7.48129C7.48129 28.9285 7.51935 28.7814 7.58993 28.6511L6.71064 28.1749ZM6.48129 29.102C6.48129 29.5079 6.58114 29.8896 6.78289 30.2371L7.64768 29.7349C7.53743 29.5451 7.48129 29.3374 7.48129 29.102H6.48129ZM6.79288 30.2535C6.99862 30.5784 7.26713 30.842 7.59504 31.0387L8.10953 30.1813C7.91744 30.066 7.76128 29.9136 7.63769 29.7185L6.79288 30.2535ZM7.60122 31.0424C7.94867 31.2441 8.3304 31.344 8.73629 31.344V30.344C8.50084 30.344 8.29323 30.2879 8.10335 30.1776L7.60122 31.0424ZM8.73629 31.344H13.5463V30.344H8.73629V31.344ZM13.5463 31.344C14.2528 31.344 14.8704 31.1477 15.313 30.6811L14.5876 29.9929C14.3889 30.2023 14.0704 30.344 13.5463 30.344V31.344ZM15.3173 30.6765C15.7244 30.2365 15.9313 29.7032 15.9313 29.102H14.9313C14.9313 29.4541 14.8175 29.7442 14.5832 29.9975L15.3173 30.6765ZM15.9313 29.102C15.9313 28.4449 15.7381 27.8654 15.3173 27.4105L14.5832 28.0895C14.8038 28.3279 14.9313 28.6498 14.9313 29.102H15.9313ZM15.3215 27.415C14.8806 26.9265 14.2601 26.717 13.5463 26.717V27.717C14.0631 27.717 14.3786 27.8629 14.5791 28.085L15.3215 27.415ZM13.5463 26.717C13.1934 26.717 12.855 26.8032 12.5366 26.9679L12.996 27.8561C13.1802 27.7608 13.3618 27.717 13.5463 27.717V26.717ZM12.5427 26.9648C12.2289 27.1217 11.9666 27.3434 11.7625 27.6268L12.5741 28.2112C12.682 28.0612 12.8184 27.945 12.9899 27.8592L12.5427 26.9648ZM11.7603 27.63C11.5478 27.93 11.4473 28.2757 11.4473 28.647H12.4473C12.4473 28.4636 12.4941 28.324 12.5763 28.208L11.7603 27.63ZM11.4473 28.647C11.4473 28.5959 11.4604 28.4658 11.5742 28.3519C11.6881 28.2381 11.8182 28.225 11.8693 28.225V29.225C11.9724 29.225 12.1415 29.1989 12.2813 29.0591C12.4212 28.9192 12.4473 28.7501 12.4473 28.647H11.4473ZM11.8693 28.225C11.9204 28.225 12.0505 28.2381 12.1643 28.3519C12.2782 28.4658 12.2913 28.5959 12.2913 28.647H11.2913C11.2913 28.7501 11.3174 28.9192 11.4572 29.0591C11.5971 29.1989 11.7662 29.225 11.8693 29.225V28.225ZM12.2913 28.647C12.2913 28.4401 12.3455 28.2733 12.4472 28.1287L11.6294 27.5533C11.4018 27.8767 11.2913 28.2472 11.2913 28.647H12.2913ZM12.4452 28.1316C12.5717 27.9545 12.7315 27.8161 12.9306 27.7133L12.472 26.8247C12.1338 26.9992 11.8516 27.2422 11.6314 27.5504L12.4452 28.1316ZM12.9306 27.7133C13.1303 27.6102 13.3335 27.561 13.5463 27.561V26.561C13.1697 26.561 12.8096 26.6504 12.472 26.8247L12.9306 27.7133ZM13.5463 27.561C14.1023 27.561 14.4526 27.7217 14.6806 27.9782L15.428 27.3138C14.9627 26.7903 14.3076 26.561 13.5463 26.561V27.561ZM14.6885 27.9869C14.9461 28.2634 15.0873 28.6213 15.0873 29.102H16.0873C16.0873 28.404 15.8731 27.7913 15.4201 27.3051L14.6885 27.9869ZM15.0873 29.102C15.0873 29.4949 14.9581 29.8173 14.6924 30.096L15.4162 30.786C15.8611 30.3194 16.0873 29.7491 16.0873 29.102H15.0873ZM14.6924 30.096C14.4548 30.3451 14.0976 30.5 13.5463 30.5V31.5C14.295 31.5 14.9431 31.2822 15.4162 30.786L14.6924 30.096ZM13.5463 30.5H8.73629V31.5H13.5463V30.5ZM18.1577 30.48L17.9107 30.9147L17.9128 30.9159L18.1577 30.48ZM16.3637 28.634L15.9233 28.8708L15.9244 28.8728L16.3637 28.634ZM18.1577 21.354L17.9242 20.9119L17.9222 20.913L18.1577 21.354ZM22.8507 21.133L22.6537 21.5926L22.6617 21.5959L22.8507 21.133ZM24.4237 22.199L24.06 22.5421L24.0634 22.5457L24.4237 22.199ZM25.4377 23.811L24.9704 23.9887L24.9712 23.9909L25.4377 23.811ZM25.4377 27.906L25.9082 28.0754L25.4377 27.906ZM24.4237 29.609L24.054 29.2723L24.0508 29.276L24.4237 29.609ZM22.8507 30.74L23.0477 31.1996L23.0508 31.1982L22.8507 30.74ZM16.4937 28.556L16.0525 28.7913L16.0557 28.7971L16.4937 28.556ZM18.2487 30.35L18.0012 30.7844L18.005 30.7866L18.2487 30.35ZM23.3577 30.298L23.0945 29.8729L23.0923 29.8743L23.3577 30.298ZM25.0347 28.452L24.5885 28.2264L24.5875 28.2284L25.0347 28.452ZM25.2947 23.863L24.8277 24.0416V24.0416L25.2947 23.863ZM24.3197 22.316L23.9558 22.6589L23.9592 22.6624L24.3197 22.316ZM22.7857 21.276L22.5896 21.736L22.5977 21.7393L22.7857 21.276ZM18.2487 21.497L18.4806 21.94L18.4846 21.9379L18.2487 21.497ZM16.4937 23.187L16.0605 22.9373L16.0596 22.9389L16.4937 23.187ZM20.7967 30.63C19.8843 30.63 19.0907 30.4307 18.4026 30.0441L17.9128 30.9159C18.7674 31.396 19.7332 31.63 20.7967 31.63V30.63ZM18.4047 30.0453C17.7261 29.6597 17.1934 29.1136 16.803 28.3952L15.9244 28.8728C16.4007 29.7491 17.064 30.4336 17.9107 30.9147L18.4047 30.0453ZM16.8041 28.3972C16.4168 27.6769 16.2137 26.8123 16.2137 25.787H15.2137C15.2137 26.9457 15.444 27.9791 15.9233 28.8708L16.8041 28.3972ZM16.2137 25.787C16.2137 24.8173 16.4153 24.0097 16.7972 23.3451L15.9302 22.8469C15.4455 23.6903 15.2137 24.6767 15.2137 25.787H16.2137ZM16.7972 23.3451C17.1842 22.6719 17.7138 22.1579 18.3933 21.795L17.9222 20.913C17.0763 21.3647 16.41 22.0121 15.9302 22.8469L16.7972 23.3451ZM18.3912 21.7961C19.0815 21.4316 19.8792 21.243 20.7967 21.243V20.243C19.7383 20.243 18.7766 20.4617 17.9242 20.9119L18.3912 21.7961ZM20.7967 21.243C21.5021 21.243 22.1183 21.3631 22.6538 21.5926L23.0477 20.6734C22.3699 20.3829 21.6167 20.243 20.7967 20.243V21.243ZM22.6617 21.5959C23.2145 21.8217 23.6783 22.1374 24.06 22.5421L24.7874 21.8559C24.3025 21.3419 23.7177 20.947 23.0398 20.6701L22.6617 21.5959ZM24.0634 22.5457C24.4572 22.9549 24.7595 23.4342 24.9704 23.9887L25.9051 23.6333C25.6479 22.9571 25.2743 22.3618 24.784 21.8523L24.0634 22.5457ZM24.9712 23.9909C25.1811 24.5351 25.2887 25.1321 25.2887 25.787H26.2887C26.2887 25.0205 26.1623 24.3003 25.9042 23.6311L24.9712 23.9909ZM25.2887 25.787C25.2887 26.4979 25.1798 27.1463 24.9673 27.7366L25.9082 28.0754C26.1637 27.3657 26.2887 26.6014 26.2887 25.787H25.2887ZM24.9673 27.7366C24.7544 28.3281 24.4495 28.8381 24.0541 29.2723L24.7934 29.9457C25.282 29.4092 25.6531 28.7839 25.9082 28.0754L24.9673 27.7366ZM24.0508 29.276C23.6669 29.7059 23.2022 30.041 22.6507 30.2818L23.0508 31.1982C23.7299 30.9017 24.3139 30.4828 24.7967 29.942L24.0508 29.276ZM22.6538 30.2804C22.1183 30.5099 21.5021 30.63 20.7967 30.63V31.63C21.6167 31.63 22.3699 31.4901 23.0477 31.1996L22.6538 30.2804ZM15.3697 25.787C15.3697 26.9183 15.5907 27.9254 16.0526 28.7913L16.9349 28.3207C16.5647 27.6266 16.3697 26.7877 16.3697 25.787H15.3697ZM16.0557 28.7971C16.5236 29.647 17.1736 30.3129 18.0012 30.7844L18.4963 29.9156C17.8332 29.5378 17.3132 29.0077 16.9317 28.3149L16.0557 28.7971ZM18.005 30.7866C18.8333 31.2489 19.7683 31.474 20.7967 31.474V30.474C19.9185 30.474 19.1549 30.2831 18.4924 29.9134L18.005 30.7866ZM20.7967 31.474C21.863 31.474 22.812 31.2299 23.6232 30.7217L23.0923 29.8743C22.4648 30.2674 21.7065 30.474 20.7967 30.474V31.474ZM23.6209 30.7231C24.4293 30.2227 25.0513 29.5369 25.4819 28.6756L24.5875 28.2284C24.2382 28.9271 23.7422 29.472 23.0946 29.8729L23.6209 30.7231ZM25.481 28.6776C25.919 27.8111 26.1327 26.844 26.1327 25.787H25.1327C25.1327 26.706 24.9478 27.5156 24.5885 28.2264L25.481 28.6776ZM26.1327 25.787C26.1327 25.0387 26.0109 24.3362 25.7618 23.6844L24.8277 24.0416C25.0292 24.5685 25.1327 25.1487 25.1327 25.787H26.1327ZM25.7618 23.6844C25.5132 23.0345 25.1527 22.4613 24.6803 21.9696L23.9592 22.6624C24.3361 23.0547 24.6256 23.5129 24.8277 24.0416L25.7618 23.6844ZM24.6836 21.9731C24.2076 21.4679 23.6355 21.0812 22.9737 20.8127L22.5977 21.7393C23.132 21.9561 23.5826 22.2628 23.9558 22.6589L24.6836 21.9731ZM22.9819 20.8161C22.3219 20.5346 21.5908 20.399 20.7967 20.399V21.399C21.476 21.399 22.0709 21.5147 22.5896 21.7359L22.9819 20.8161ZM20.7967 20.399C19.7718 20.399 18.8396 20.6139 18.0129 21.0561L18.4846 21.9379C19.1485 21.5828 19.915 21.399 20.7967 21.399V20.399ZM18.0169 21.054C17.1865 21.4885 16.5321 22.1193 16.0606 22.9373L16.9269 23.4367C17.3047 22.7813 17.8203 22.2855 18.4805 21.94L18.0169 21.054ZM16.0596 22.9389C15.5926 23.7562 15.3697 24.712 15.3697 25.787H16.3697C16.3697 24.8514 16.5629 24.0738 16.9279 23.4351L16.0596 22.9389ZM28.7522 30.48L28.5052 30.9147L28.5073 30.9159L28.7522 30.48ZM26.9582 28.634L26.5178 28.8708L26.5189 28.8728L26.9582 28.634ZM28.7522 21.354L28.5187 20.9119L28.5167 20.913L28.7522 21.354ZM33.4452 21.133L33.2482 21.5926L33.2562 21.5959L33.4452 21.133ZM35.0182 22.199L34.6545 22.5421L34.6579 22.5457L35.0182 22.199ZM36.0322 23.811L35.5649 23.9887L35.5657 23.9909L36.0322 23.811ZM36.0322 27.906L36.5027 28.0754L36.0322 27.906ZM35.0182 29.609L34.6485 29.2723L34.6453 29.276L35.0182 29.609ZM33.4452 30.74L33.6422 31.1996L33.6453 31.1982L33.4452 30.74ZM27.0882 28.556L26.647 28.7913L26.6502 28.7971L27.0882 28.556ZM28.8432 30.35L28.5957 30.7844L28.5995 30.7866L28.8432 30.35ZM33.9522 30.298L33.689 29.8729L33.6868 29.8743L33.9522 30.298ZM35.6292 28.452L35.183 28.2264L35.182 28.2284L35.6292 28.452ZM35.8892 23.863L35.4222 24.0416V24.0416L35.8892 23.863ZM34.9142 22.316L34.5503 22.6589L34.5537 22.6624L34.9142 22.316ZM33.3802 21.276L33.184 21.736L33.1922 21.7393L33.3802 21.276ZM28.8432 21.497L29.075 21.94L29.079 21.9379L28.8432 21.497ZM27.0882 23.187L26.655 22.9373L26.6541 22.9389L27.0882 23.187ZM31.3912 30.63C30.4788 30.63 29.6852 30.4307 28.9971 30.0441L28.5073 30.9159C29.3619 31.396 30.3277 31.63 31.3912 31.63V30.63ZM28.9992 30.0453C28.3206 29.6597 27.7879 29.1136 27.3975 28.3952L26.5189 28.8728C26.9952 29.7491 27.6585 30.4336 28.5052 30.9147L28.9992 30.0453ZM27.3986 28.3972C27.0113 27.6769 26.8082 26.8123 26.8082 25.787H25.8082C25.8082 26.9457 26.0385 27.9791 26.5178 28.8708L27.3986 28.3972ZM26.8082 25.787C26.8082 24.8173 27.0098 24.0097 27.3917 23.3451L26.5247 22.8469C26.04 23.6903 25.8082 24.6767 25.8082 25.787H26.8082ZM27.3917 23.3451C27.7787 22.6719 28.3083 22.1579 28.9878 21.795L28.5167 20.913C27.6708 21.3647 27.0045 22.0121 26.5247 22.8469L27.3917 23.3451ZM28.9857 21.7961C29.676 21.4316 30.4737 21.243 31.3912 21.243V20.243C30.3328 20.243 29.3711 20.4617 28.5187 20.9119L28.9857 21.7961ZM31.3912 21.243C32.0966 21.243 32.7128 21.3631 33.2483 21.5926L33.6422 20.6734C32.9643 20.3829 32.2112 20.243 31.3912 20.243V21.243ZM33.2562 21.5959C33.8089 21.8217 34.2728 22.1374 34.6545 22.5421L35.3819 21.8559C34.897 21.3419 34.3122 20.947 33.6343 20.6701L33.2562 21.5959ZM34.6579 22.5457C35.0517 22.9549 35.354 23.4342 35.5649 23.9887L36.4996 23.6333C36.2424 22.9571 35.8688 22.3618 35.3785 21.8523L34.6579 22.5457ZM35.5657 23.9909C35.7756 24.5351 35.8832 25.1321 35.8832 25.787H36.8832C36.8832 25.0205 36.7568 24.3003 36.4987 23.6311L35.5657 23.9909ZM35.8832 25.787C35.8832 26.4979 35.7743 27.1463 35.5618 27.7366L36.5027 28.0754C36.7582 27.3657 36.8832 26.6014 36.8832 25.787H35.8832ZM35.5618 27.7366C35.3489 28.3281 35.044 28.8381 34.6486 29.2723L35.3879 29.9457C35.8765 29.4092 36.2476 28.7839 36.5027 28.0754L35.5618 27.7366ZM34.6453 29.276C34.2614 29.7059 33.7967 30.041 33.2452 30.2818L33.6453 31.1982C34.3244 30.9017 34.9084 30.4828 35.3912 29.942L34.6453 29.276ZM33.2483 30.2804C32.7128 30.5099 32.0966 30.63 31.3912 30.63V31.63C32.2112 31.63 32.9643 31.4901 33.6422 31.1996L33.2483 30.2804ZM25.9642 25.787C25.9642 26.9183 26.1852 27.9254 26.647 28.7913L27.5294 28.3207C27.1592 27.6266 26.9642 26.7877 26.9642 25.787H25.9642ZM26.6502 28.7971C27.1181 29.647 27.7681 30.3129 28.5957 30.7844L29.0907 29.9156C28.4277 29.5378 27.9077 29.0077 27.5262 28.3149L26.6502 28.7971ZM28.5995 30.7866C29.4278 31.2489 30.3628 31.474 31.3912 31.474V30.474C30.513 30.474 29.7493 30.2831 29.0869 29.9134L28.5995 30.7866ZM31.3912 31.474C32.4574 31.474 33.4065 31.2299 34.2177 30.7217L33.6868 29.8743C33.0593 30.2674 32.301 30.474 31.3912 30.474V31.474ZM34.2154 30.7231C35.0238 30.2227 35.6458 29.5369 36.0764 28.6756L35.182 28.2284C34.8327 28.9271 34.3367 29.472 33.689 29.8729L34.2154 30.7231ZM36.0755 28.6776C36.5135 27.8111 36.7272 26.844 36.7272 25.787H35.7272C35.7272 26.706 35.5423 27.5156 35.183 28.2264L36.0755 28.6776ZM36.7272 25.787C36.7272 25.0387 36.6054 24.3362 36.3562 23.6844L35.4222 24.0416C35.6237 24.5685 35.7272 25.1487 35.7272 25.787H36.7272ZM36.3562 23.6844C36.1077 23.0345 35.7472 22.4613 35.2748 21.9696L34.5537 22.6624C34.9306 23.0547 35.22 23.5129 35.4222 24.0416L36.3562 23.6844ZM35.2781 21.9731C34.8021 21.4679 34.23 21.0812 33.5682 20.8127L33.1922 21.7393C33.7265 21.9561 34.177 22.2628 34.5503 22.6589L35.2781 21.9731ZM33.5764 20.8161C32.9164 20.5346 32.1853 20.399 31.3912 20.399V21.399C32.0705 21.399 32.6654 21.5147 33.1841 21.7359L33.5764 20.8161ZM31.3912 20.399C30.3663 20.399 29.4341 20.6139 28.6074 21.0561L29.079 21.9379C29.743 21.5828 30.5095 21.399 31.3912 21.399V20.399ZM28.6114 21.054C27.781 21.4885 27.1266 22.1193 26.655 22.9373L27.5214 23.4367C27.8992 22.7813 28.4148 22.2855 29.075 21.94L28.6114 21.054ZM26.6541 22.9389C26.1871 23.7562 25.9642 24.712 25.9642 25.787H26.9642C26.9642 24.8514 27.1574 24.0738 27.5223 23.4351L26.6541 22.9389Z" fill="#803D3B" mask="url(#path-4-outside-2_222_1836)"/>
</svg>
