<svg width="22" height="15" viewBox="0 0 22 15" fill="none" xmlns="http://www.w3.org/2000/svg">
<path d="M11.475 11.8065L19.85 3.4446L18.55 2.14663L10.175 10.5085L11.475 11.8065ZM4.95 13.9781C3.28333 13.8949 2.04167 13.5454 1.225 12.9297C0.408333 12.314 0 11.4237 0 10.2589C0 9.17727 0.445833 8.29948 1.3375 7.62554C2.22917 6.9516 3.46667 6.54806 5.05 6.41494C5.7 6.36502 6.1875 6.26101 6.5125 6.10293C6.8375 5.94484 7 5.72435 7 5.44146C7 5.00881 6.75417 4.68432 6.2625 4.46799C5.77083 4.25166 4.95833 4.09358 3.825 3.99374L4 1.99687C5.71667 2.12999 6.97917 2.47528 7.7875 3.03274C8.59583 3.5902 9 4.39311 9 5.44146C9 6.32341 8.67917 7.014 8.0375 7.51321C7.39583 8.01243 6.45 8.31196 5.2 8.41181C4.13333 8.49501 3.33333 8.69053 2.8 8.99838C2.26667 9.30623 2 9.72641 2 10.2589C2 10.8413 2.23333 11.2615 2.7 11.5194C3.16667 11.7774 3.95 11.9313 5.05 11.9812L4.95 13.9781ZM11.95 14.1528L7.825 10.0343L17.375 0.499217C17.7083 0.166406 18.1042 0 18.5625 0C19.0208 0 19.4167 0.166406 19.75 0.499217L21.5 2.24648C21.8333 2.57929 22 2.9745 22 3.43212C22 3.88973 21.8333 4.28495 21.5 4.61776L11.95 14.1528ZM7.975 14.9765C7.69167 15.0431 7.44167 14.9682 7.225 14.7519C7.00833 14.5355 6.93333 14.2859 7 14.003L7.825 10.0343L11.95 14.1528L7.975 14.9765Z" fill="#1C1B1F"/>
</svg>
