<svg width="20" height="20" viewBox="0 0 20 20" fill="none" xmlns="http://www.w3.org/2000/svg">
<path d="M11.95 19.8816C11.7 20.0148 11.4458 20.0356 11.1875 19.944C10.9292 19.8525 10.7333 19.6818 10.6 19.432L9.1 16.4348C8.96667 16.185 8.94583 15.9311 9.0375 15.673C9.12917 15.4149 9.3 15.2192 9.55 15.086C9.8 14.9528 10.0542 14.932 10.3125 15.0236C10.5708 15.1152 10.7667 15.2858 10.9 15.5356L12.4 18.5328C12.5333 18.7826 12.5542 19.0365 12.4625 19.2946C12.3708 19.5527 12.2 19.7484 11.95 19.8816ZM17.95 19.8816C17.7 20.0148 17.4458 20.0356 17.1875 19.944C16.9292 19.8525 16.7333 19.6818 16.6 19.432L15.1 16.4348C14.9667 16.185 14.9458 15.9311 15.0375 15.673C15.1292 15.4149 15.3 15.2192 15.55 15.086C15.8 14.9528 16.0542 14.932 16.3125 15.0236C16.5708 15.1152 16.7667 15.2858 16.9 15.5356L18.4 18.5328C18.5333 18.7826 18.5542 19.0365 18.4625 19.2946C18.3708 19.5527 18.2 19.7484 17.95 19.8816ZM5.95 19.8816C5.7 20.0148 5.44583 20.0356 5.1875 19.944C4.92917 19.8525 4.73333 19.6818 4.6 19.432L3.1 16.4348C2.96667 16.185 2.94583 15.9311 3.0375 15.673C3.12917 15.4149 3.3 15.2192 3.55 15.086C3.8 14.9528 4.05417 14.932 4.3125 15.0236C4.57083 15.1152 4.76667 15.2858 4.9 15.5356L6.4 18.5328C6.53333 18.7826 6.55417 19.0365 6.4625 19.2946C6.37083 19.5527 6.2 19.7484 5.95 19.8816ZM5.5 13.987C3.98333 13.987 2.6875 13.45 1.6125 12.376C0.5375 11.302 0 10.0074 0 8.49214C0 7.11008 0.458333 5.90287 1.375 4.87049C2.29167 3.83811 3.425 3.23034 4.775 3.04718C5.30833 2.09806 6.0375 1.35291 6.9625 0.811748C7.8875 0.270583 8.9 0 10 0C11.5 0 12.8042 0.478723 13.9125 1.43617C15.0208 2.39362 15.6917 3.58834 15.925 5.02035C17.075 5.12026 18.0417 5.59482 18.825 6.44403C19.6083 7.29325 20 8.30897 20 9.49121C20 10.7401 19.5625 11.8016 18.6875 12.6758C17.8125 13.55 16.75 13.987 15.5 13.987H5.5ZM5.5 11.9889H15.5C16.2 11.9889 16.7917 11.7475 17.275 11.2646C17.7583 10.7817 18 10.1906 18 9.49121C18 8.79186 17.7583 8.20074 17.275 7.71785C16.7917 7.23497 16.2 6.99352 15.5 6.99352H14V5.99445C14 4.89547 13.6083 3.95467 12.825 3.17206C12.0417 2.38945 11.1 1.99815 10 1.99815C9.2 1.99815 8.47083 2.21462 7.8125 2.64755C7.15417 3.08048 6.65833 3.66327 6.325 4.39593L6.075 4.99537H5.45C4.5 5.02868 3.6875 5.38252 3.0125 6.05689C2.3375 6.73127 2 7.54302 2 8.49214C2 9.45791 2.34167 10.2821 3.025 10.9648C3.70833 11.6475 4.53333 11.9889 5.5 11.9889Z" fill="#572DD6"/>
</svg>
