<svg width="83" height="32" viewBox="0 0 83 32" fill="none" xmlns="http://www.w3.org/2000/svg">
<path d="M2.19652 19V4.45455H7.11129C8.24766 4.45455 9.18042 4.64867 9.90959 5.03693C10.6388 5.42045 11.1785 5.94839 11.5289 6.62074C11.8793 7.29309 12.0545 8.05777 12.0545 8.91477C12.0545 9.77178 11.8793 10.5317 11.5289 11.1946C11.1785 11.8575 10.6411 12.3783 9.91669 12.7571C9.19226 13.1312 8.2666 13.3182 7.1397 13.3182H3.16243V11.7273H7.08289C7.8594 11.7273 8.4844 11.6136 8.95789 11.3864C9.4361 11.1591 9.78175 10.8371 9.99482 10.4205C10.2126 9.99905 10.3215 9.49716 10.3215 8.91477C10.3215 8.33239 10.2126 7.82339 9.99482 7.38778C9.77701 6.95218 9.429 6.616 8.95078 6.37926C8.47256 6.13778 7.84046 6.01705 7.05448 6.01705H3.95789V19H2.19652ZM9.04311 12.4659L12.6227 19H10.5772L7.05448 12.4659H9.04311ZM18.8189 19.2273C17.7678 19.2273 16.861 18.9953 16.0987 18.5312C15.3411 18.0625 14.7564 17.4091 14.3445 16.571C13.9373 15.7282 13.7337 14.7481 13.7337 13.6307C13.7337 12.5133 13.9373 11.5284 14.3445 10.6761C14.7564 9.81913 15.3293 9.15152 16.0632 8.6733C16.8018 8.19034 17.6636 7.94886 18.6484 7.94886C19.2166 7.94886 19.7777 8.04356 20.3317 8.23295C20.8857 8.42235 21.3899 8.73011 21.8445 9.15625C22.299 9.57765 22.6612 10.1364 22.9311 10.8324C23.201 11.5284 23.3359 12.3854 23.3359 13.4034V14.1136H14.9268V12.6648H21.6314C21.6314 12.0492 21.5083 11.5 21.2621 11.017C21.0206 10.5341 20.675 10.1529 20.2251 9.87358C19.7801 9.59422 19.2545 9.45455 18.6484 9.45455C17.9808 9.45455 17.4032 9.62026 16.9155 9.9517C16.4325 10.2784 16.0608 10.7045 15.8004 11.2301C15.54 11.7557 15.4098 12.3191 15.4098 12.9205V13.8864C15.4098 14.7102 15.5518 15.4086 15.8359 15.9815C16.1248 16.5497 16.5249 16.983 17.0362 17.2812C17.5476 17.5748 18.1418 17.7216 18.8189 17.7216C19.2592 17.7216 19.657 17.66 20.0121 17.5369C20.3719 17.4091 20.6821 17.2197 20.9425 16.9688C21.2029 16.7131 21.4041 16.3958 21.5462 16.017L23.1655 16.4716C22.995 17.0208 22.7086 17.5038 22.3061 17.9205C21.9036 18.3324 21.4065 18.6544 20.8146 18.8864C20.2228 19.1136 19.5575 19.2273 18.8189 19.2273ZM29.8891 23.3182C29.0794 23.3182 28.3834 23.214 27.801 23.0057C27.2186 22.8021 26.7333 22.5322 26.345 22.196C25.9615 21.8646 25.6561 21.5095 25.4288 21.1307L26.7641 20.1932C26.9156 20.392 27.1073 20.6193 27.3393 20.875C27.5714 21.1354 27.8886 21.3603 28.2911 21.5497C28.6983 21.7438 29.2309 21.8409 29.8891 21.8409C30.7697 21.8409 31.4965 21.6278 32.0695 21.2017C32.6424 20.7756 32.9288 20.108 32.9288 19.1989V16.983H32.7868C32.6637 17.1818 32.4885 17.428 32.2612 17.7216C32.0387 18.0104 31.7167 18.2685 31.2953 18.4957C30.8786 18.7183 30.3152 18.8295 29.605 18.8295C28.7243 18.8295 27.9336 18.6212 27.2328 18.2045C26.5368 17.7879 25.9852 17.1818 25.578 16.3864C25.1755 15.5909 24.9743 14.625 24.9743 13.4886C24.9743 12.3712 25.1708 11.3982 25.5638 10.5696C25.9568 9.73627 26.5036 9.09233 27.2044 8.63778C27.9052 8.1785 28.7148 7.94886 29.6334 7.94886C30.3436 7.94886 30.9071 8.06723 31.3237 8.30398C31.7451 8.53598 32.0671 8.80114 32.2896 9.09943C32.5169 9.39299 32.6921 9.63447 32.8152 9.82386H32.9857V8.09091H34.605V19.3125C34.605 20.25 34.3919 21.0123 33.9658 21.5994C33.5444 22.1913 32.9762 22.6245 32.2612 22.8991C31.551 23.1785 30.7603 23.3182 29.8891 23.3182ZM29.8322 17.3239C30.5046 17.3239 31.0728 17.17 31.5368 16.8622C32.0008 16.5545 32.3536 16.1117 32.595 15.5341C32.8365 14.9564 32.9572 14.2652 32.9572 13.4602C32.9572 12.6742 32.8389 11.9806 32.6021 11.3793C32.3654 10.7779 32.015 10.3068 31.551 9.96591C31.087 9.625 30.5141 9.45455 29.8322 9.45455C29.122 9.45455 28.5302 9.63447 28.0567 9.99432C27.5879 10.3542 27.2352 10.8371 26.9984 11.4432C26.7664 12.0492 26.6504 12.7216 26.6504 13.4602C26.6504 14.2178 26.7688 14.8878 27.0055 15.4702C27.247 16.0478 27.6021 16.5024 28.0709 16.8338C28.5444 17.1605 29.1315 17.3239 29.8322 17.3239ZM37.2732 19V8.09091H38.9493V19H37.2732ZM38.1254 6.27273C37.7987 6.27273 37.517 6.16146 37.2803 5.93892C37.0482 5.71638 36.9322 5.44886 36.9322 5.13636C36.9322 4.82386 37.0482 4.55634 37.2803 4.33381C37.517 4.11127 37.7987 4 38.1254 4C38.4521 4 38.7315 4.11127 38.9635 4.33381C39.2002 4.55634 39.3186 4.82386 39.3186 5.13636C39.3186 5.44886 39.2002 5.71638 38.9635 5.93892C38.7315 6.16146 38.4521 6.27273 38.1254 6.27273ZM49.3465 10.5341L47.8408 10.9602C47.7461 10.7093 47.6065 10.4654 47.4218 10.2287C47.2419 9.98722 46.9957 9.78835 46.6832 9.6321C46.3707 9.47585 45.9706 9.39773 45.4829 9.39773C44.8153 9.39773 44.2589 9.55161 43.8139 9.85938C43.3735 10.1624 43.1533 10.5483 43.1533 11.017C43.1533 11.4337 43.3049 11.7628 43.6079 12.0043C43.9109 12.2457 44.3844 12.447 45.0283 12.608L46.6477 13.0057C47.623 13.2424 48.3498 13.6046 48.8281 14.0923C49.3063 14.5753 49.5454 15.1979 49.5454 15.9602C49.5454 16.5852 49.3655 17.1439 49.0056 17.6364C48.6505 18.1288 48.1533 18.517 47.5141 18.8011C46.8749 19.0852 46.1316 19.2273 45.284 19.2273C44.1713 19.2273 43.2504 18.9858 42.5212 18.5028C41.7921 18.0199 41.3304 17.3144 41.1363 16.3864L42.7272 15.9886C42.8787 16.5758 43.1652 17.0161 43.5866 17.3097C44.0127 17.6032 44.5691 17.75 45.2556 17.75C46.0369 17.75 46.6571 17.5843 47.1164 17.2528C47.5804 16.9167 47.8124 16.5142 47.8124 16.0455C47.8124 15.6667 47.6799 15.3494 47.4147 15.0938C47.1496 14.8333 46.7424 14.6392 46.1931 14.5114L44.3749 14.0852C43.3759 13.8485 42.642 13.4815 42.1732 12.9844C41.7092 12.4825 41.4772 11.8551 41.4772 11.1023C41.4772 10.4867 41.65 9.94223 41.9957 9.46875C42.346 8.99527 42.8219 8.62358 43.4232 8.35369C44.0293 8.08381 44.7158 7.94886 45.4829 7.94886C46.5624 7.94886 47.41 8.18561 48.0255 8.65909C48.6458 9.13258 49.0861 9.75758 49.3465 10.5341ZM56.4128 8.09091V9.51136H50.7594V8.09091H56.4128ZM52.4071 5.47727H54.0832V15.875C54.0832 16.3485 54.1519 16.7036 54.2892 16.9403C54.4313 17.1723 54.6112 17.3286 54.829 17.4091C55.0515 17.4848 55.2859 17.5227 55.5321 17.5227C55.7168 17.5227 55.8683 17.5133 55.9866 17.4943C56.105 17.4706 56.1997 17.4517 56.2707 17.4375L56.6116 18.9432C56.498 18.9858 56.3394 19.0284 56.1358 19.071C55.9322 19.1184 55.6741 19.142 55.3616 19.142C54.8882 19.142 54.4241 19.0402 53.9696 18.8366C53.5198 18.633 53.1457 18.3229 52.8474 17.9062C52.5539 17.4896 52.4071 16.964 52.4071 16.3295V5.47727ZM62.9908 19.2273C61.9396 19.2273 61.0329 18.9953 60.2706 18.5312C59.513 18.0625 58.9283 17.4091 58.5163 16.571C58.1091 15.7282 57.9055 14.7481 57.9055 13.6307C57.9055 12.5133 58.1091 11.5284 58.5163 10.6761C58.9283 9.81913 59.5012 9.15152 60.2351 8.6733C60.9737 8.19034 61.8355 7.94886 62.8203 7.94886C63.3885 7.94886 63.9496 8.04356 64.5036 8.23295C65.0575 8.42235 65.5618 8.73011 66.0163 9.15625C66.4709 9.57765 66.8331 10.1364 67.103 10.8324C67.3729 11.5284 67.5078 12.3854 67.5078 13.4034V14.1136H59.0987V12.6648H65.8033C65.8033 12.0492 65.6802 11.5 65.4339 11.017C65.1925 10.5341 64.8468 10.1529 64.397 9.87358C63.9519 9.59422 63.4264 9.45455 62.8203 9.45455C62.1527 9.45455 61.575 9.62026 61.0874 9.9517C60.6044 10.2784 60.2327 10.7045 59.9723 11.2301C59.7119 11.7557 59.5817 12.3191 59.5817 12.9205V13.8864C59.5817 14.7102 59.7237 15.4086 60.0078 15.9815C60.2966 16.5497 60.6967 16.983 61.2081 17.2812C61.7195 17.5748 62.3137 17.7216 62.9908 17.7216C63.4311 17.7216 63.8288 17.66 64.1839 17.5369C64.5438 17.4091 64.8539 17.2197 65.1143 16.9688C65.3748 16.7131 65.576 16.3958 65.718 16.017L67.3374 16.4716C67.1669 17.0208 66.8804 17.5038 66.478 17.9205C66.0755 18.3324 65.5784 18.6544 64.9865 18.8864C64.3946 19.1136 63.7294 19.2273 62.9908 19.2273ZM69.6575 19V8.09091H71.2768V9.73864H71.3905C71.5893 9.19886 71.9492 8.76089 72.47 8.42472C72.9909 8.08854 73.578 7.92045 74.2314 7.92045C74.3545 7.92045 74.5084 7.92282 74.693 7.92756C74.8777 7.93229 75.0174 7.93939 75.1121 7.94886V9.65341C75.0553 9.6392 74.925 9.6179 74.7214 9.58949C74.5226 9.55634 74.3119 9.53977 74.0893 9.53977C73.559 9.53977 73.0856 9.65104 72.6689 9.87358C72.257 10.0914 71.9303 10.3944 71.6888 10.7827C71.452 11.1662 71.3337 11.6042 71.3337 12.0966V19H69.6575Z" fill="#803D3B"/>
<path d="M82.7071 24.7071C83.0976 24.3166 83.0976 23.6834 82.7071 23.2929L76.3431 16.9289C75.9526 16.5384 75.3195 16.5384 74.9289 16.9289C74.5384 17.3195 74.5384 17.9526 74.9289 18.3431L80.5858 24L74.9289 29.6569C74.5384 30.0474 74.5384 30.6805 74.9289 31.0711C75.3195 31.4616 75.9526 31.4616 76.3431 31.0711L82.7071 24.7071ZM0 25L82 25V23L0 23L0 25Z" fill="#803D3B"/>
</svg>
