<svg width="25" height="25" viewBox="0 0 25 25" fill="none" xmlns="http://www.w3.org/2000/svg">
<path d="M2.77778 25C2.01389 25 1.35995 24.7552 0.815972 24.2656C0.271991 23.776 0 23.1875 0 22.5V5C0 4.3125 0.271991 3.72396 0.815972 3.23438C1.35995 2.74479 2.01389 2.5 2.77778 2.5H4.16667V0H6.94444V2.5H18.0556V0H20.8333V2.5H22.2222C22.9861 2.5 23.64 2.74479 24.184 3.23438C24.728 3.72396 25 4.3125 25 5V22.5C25 23.1875 24.728 23.776 24.184 24.2656C23.64 24.7552 22.9861 25 22.2222 25H2.77778ZM2.77778 22.5H22.2222V10H2.77778V22.5ZM2.77778 7.5H22.2222V5H2.77778V7.5ZM12.5 15C12.1065 15 11.7766 14.8802 11.5104 14.6406C11.2442 14.401 11.1111 14.1042 11.1111 13.75C11.1111 13.3958 11.2442 13.099 11.5104 12.8594C11.7766 12.6198 12.1065 12.5 12.5 12.5C12.8935 12.5 13.2234 12.6198 13.4896 12.8594C13.7558 13.099 13.8889 13.3958 13.8889 13.75C13.8889 14.1042 13.7558 14.401 13.4896 14.6406C13.2234 14.8802 12.8935 15 12.5 15ZM6.94444 15C6.55093 15 6.22106 14.8802 5.95486 14.6406C5.68866 14.401 5.55556 14.1042 5.55556 13.75C5.55556 13.3958 5.68866 13.099 5.95486 12.8594C6.22106 12.6198 6.55093 12.5 6.94444 12.5C7.33796 12.5 7.66782 12.6198 7.93403 12.8594C8.20023 13.099 8.33333 13.3958 8.33333 13.75C8.33333 14.1042 8.20023 14.401 7.93403 14.6406C7.66782 14.8802 7.33796 15 6.94444 15ZM18.0556 15C17.662 15 17.3322 14.8802 17.066 14.6406C16.7998 14.401 16.6667 14.1042 16.6667 13.75C16.6667 13.3958 16.7998 13.099 17.066 12.8594C17.3322 12.6198 17.662 12.5 18.0556 12.5C18.4491 12.5 18.7789 12.6198 19.0451 12.8594C19.3113 13.099 19.4444 13.3958 19.4444 13.75C19.4444 14.1042 19.3113 14.401 19.0451 14.6406C18.7789 14.8802 18.4491 15 18.0556 15ZM12.5 20C12.1065 20 11.7766 19.8802 11.5104 19.6406C11.2442 19.401 11.1111 19.1042 11.1111 18.75C11.1111 18.3958 11.2442 18.099 11.5104 17.8594C11.7766 17.6198 12.1065 17.5 12.5 17.5C12.8935 17.5 13.2234 17.6198 13.4896 17.8594C13.7558 18.099 13.8889 18.3958 13.8889 18.75C13.8889 19.1042 13.7558 19.401 13.4896 19.6406C13.2234 19.8802 12.8935 20 12.5 20ZM6.94444 20C6.55093 20 6.22106 19.8802 5.95486 19.6406C5.68866 19.401 5.55556 19.1042 5.55556 18.75C5.55556 18.3958 5.68866 18.099 5.95486 17.8594C6.22106 17.6198 6.55093 17.5 6.94444 17.5C7.33796 17.5 7.66782 17.6198 7.93403 17.8594C8.20023 18.099 8.33333 18.3958 8.33333 18.75C8.33333 19.1042 8.20023 19.401 7.93403 19.6406C7.66782 19.8802 7.33796 20 6.94444 20ZM18.0556 20C17.662 20 17.3322 19.8802 17.066 19.6406C16.7998 19.401 16.6667 19.1042 16.6667 18.75C16.6667 18.3958 16.7998 18.099 17.066 17.8594C17.3322 17.6198 17.662 17.5 18.0556 17.5C18.4491 17.5 18.7789 17.6198 19.0451 17.8594C19.3113 18.099 19.4444 18.3958 19.4444 18.75C19.4444 19.1042 19.3113 19.401 19.0451 19.6406C18.7789 19.8802 18.4491 20 18.0556 20Z" fill="#1C1B1F"/>
</svg>
