<svg width="30" height="30" viewBox="0 0 30 30" fill="none" xmlns="http://www.w3.org/2000/svg">
<path d="M11.8421 20.5263C14.2468 20.5263 16.2953 19.68 17.9874 17.9874C19.68 16.2953 20.5263 14.2468 20.5263 11.8421C20.5263 9.43737 19.68 7.38869 17.9874 5.69606C16.2953 4.00395 14.2468 3.1579 11.8421 3.1579C9.43737 3.1579 7.38868 4.00395 5.69605 5.69606C4.00395 7.38869 3.1579 9.43737 3.1579 11.8421C3.1579 14.2468 4.00395 16.2953 5.69605 17.9874C7.38868 19.68 9.43737 20.5263 11.8421 20.5263ZM27.7468 30L19.0318 21.2242C17.9792 22.03 16.8508 22.6413 15.6466 23.0582C14.4424 23.4755 13.1742 23.6842 11.8421 23.6842C8.55053 23.6842 5.75395 22.5334 3.45237 20.2318C1.15079 17.9303 0 15.1337 0 11.8421C0 8.55053 1.15079 5.75395 3.45237 3.45237C5.75395 1.15079 8.55053 0 11.8421 0C15.1337 0 17.9303 1.15079 20.2318 3.45237C22.5334 5.75395 23.6842 8.55053 23.6842 11.8421C23.6842 13.1742 23.4726 14.4424 23.0495 15.6466C22.6263 16.8508 22.0118 17.9792 21.2061 19.0318L30 27.765L27.7468 30Z" fill="#803D3B"/>
</svg>
