<svg width="20" height="20" viewBox="0 0 20 20" fill="none" xmlns="http://www.w3.org/2000/svg">
<path d="M9.09091 3.63636V0H10.9091V3.63636H9.09091ZM15.1364 6.13636L13.8864 4.88636L16.4318 2.27273L17.7045 3.56818L15.1364 6.13636ZM16.3636 10.9091V9.09091H20V10.9091H16.3636ZM9.09091 20V16.3636H10.9091V20H9.09091ZM4.86364 6.09091L2.27273 3.56818L3.56818 2.29545L6.13636 4.86364L4.86364 6.09091ZM16.4091 17.7273L13.8864 15.1136L15.1136 13.8864L17.7045 16.3864L16.4091 17.7273ZM0 10.9091V9.09091H3.63636V10.9091H0ZM3.56818 17.7273L2.29545 16.4318L4.84091 13.8864L5.5 14.5L6.15909 15.1364L3.56818 17.7273ZM10 15.4545C8.48485 15.4545 7.19697 14.9242 6.13636 13.8636C5.07576 12.803 4.54545 11.5152 4.54545 10C4.54545 8.48485 5.07576 7.19697 6.13636 6.13636C7.19697 5.07576 8.48485 4.54545 10 4.54545C11.5152 4.54545 12.803 5.07576 13.8636 6.13636C14.9242 7.19697 15.4545 8.48485 15.4545 10C15.4545 11.5152 14.9242 12.803 13.8636 13.8636C12.803 14.9242 11.5152 15.4545 10 15.4545ZM10 13.6364C11 13.6364 11.8561 13.2803 12.5682 12.5682C13.2803 11.8561 13.6364 11 13.6364 10C13.6364 9 13.2803 8.14394 12.5682 7.43182C11.8561 6.7197 11 6.36364 10 6.36364C9 6.36364 8.14394 6.7197 7.43182 7.43182C6.7197 8.14394 6.36364 9 6.36364 10C6.36364 11 6.7197 11.8561 7.43182 12.5682C8.14394 13.2803 9 13.6364 10 13.6364Z" fill="#EE8C30"/>
</svg>
