<svg width="25" height="25" viewBox="0 0 25 25" fill="none" xmlns="http://www.w3.org/2000/svg">
<path d="M12.5 25C10.7639 25 9.13773 24.6701 7.62153 24.0104C6.10532 23.3507 4.78588 22.4595 3.66319 21.3368C2.54051 20.2141 1.64931 18.8947 0.989583 17.3785C0.329861 15.8623 0 14.2361 0 12.5C0 10.7639 0.329861 9.13773 0.989583 7.62153C1.64931 6.10532 2.54051 4.78588 3.66319 3.66319C4.78588 2.54051 6.10532 1.64931 7.62153 0.989583C9.13773 0.329861 10.7639 0 12.5 0C14.3981 0 16.1979 0.405093 17.8993 1.21528C19.6007 2.02546 21.0417 3.1713 22.2222 4.65278V1.38889H25V9.72222H16.6667V6.94444H20.4861C19.537 5.64815 18.3681 4.62963 16.9792 3.88889C15.5903 3.14815 14.0972 2.77778 12.5 2.77778C9.79167 2.77778 7.49421 3.72106 5.60764 5.60764C3.72106 7.49421 2.77778 9.79167 2.77778 12.5C2.77778 15.2083 3.72106 17.5058 5.60764 19.3924C7.49421 21.2789 9.79167 22.2222 12.5 22.2222C14.9306 22.2222 17.0544 21.4352 18.8715 19.8611C20.6887 18.287 21.7593 16.2963 22.0833 13.8889H24.9306C24.5833 17.0602 23.2234 19.7049 20.8507 21.8229C18.478 23.941 15.6944 25 12.5 25ZM16.3889 18.3333L11.1111 13.0556V5.55556H13.8889V11.9444L18.3333 16.3889L16.3889 18.3333Z" fill="#1C1B1F"/>
</svg>
