<svg width="25" height="25" viewBox="0 0 25 25" fill="none" xmlns="http://www.w3.org/2000/svg">
<path d="M11.3636 5V0H13.6364V5H11.3636ZM18.9205 8.4375L17.3295 6.6875L20.5398 3.125L22.1307 4.90625L18.9205 8.4375ZM20.4545 15V12.5H25V15H20.4545ZM20.5398 24.3438L17.3295 20.8125L18.9205 19.0625L22.1591 22.5625L20.5398 24.3438ZM6.07955 8.4375L2.86932 4.90625L4.48864 3.125L7.67045 6.6875L6.07955 8.4375ZM5.68182 22.5H10.7955C11.2689 22.5 11.6714 22.3177 12.0028 21.9531C12.3343 21.5885 12.5 21.1458 12.5 20.625C12.5 20.1042 12.339 19.6615 12.017 19.2969C11.6951 18.9323 11.2973 18.75 10.8239 18.75H9.375L8.80682 17.25C8.54167 16.5625 8.125 16.0156 7.55682 15.6094C6.98864 15.2031 6.36364 15 5.68182 15C4.73485 15 3.92992 15.3646 3.26705 16.0938C2.60417 16.8229 2.27273 17.7083 2.27273 18.75C2.27273 19.7917 2.60417 20.6771 3.26705 21.4062C3.92992 22.1354 4.73485 22.5 5.68182 22.5ZM5.68182 25C4.10985 25 2.76989 24.3906 1.66193 23.1719C0.553977 21.9531 0 20.4792 0 18.75C0 17.0208 0.553977 15.5469 1.66193 14.3281C2.76989 13.1094 4.10985 12.5 5.68182 12.5C6.81818 12.5 7.85511 12.8385 8.79261 13.5156C9.73011 14.1927 10.4261 15.1042 10.8807 16.25C11.9792 16.25 12.9025 16.6979 13.6506 17.5938C14.3987 18.4896 14.7727 19.5625 14.7727 20.8125C14.7348 22 14.3324 22.9948 13.5653 23.7969C12.7983 24.599 11.875 25 10.7955 25H5.68182ZM14.7727 20.8125C14.678 20.3958 14.5833 19.9896 14.4886 19.5938C14.3939 19.1979 14.2992 18.7917 14.2045 18.375C15.0568 17.9792 15.7434 17.3646 16.2642 16.5312C16.785 15.6979 17.0455 14.7708 17.0455 13.75C17.0455 12.375 16.6004 11.1979 15.7102 10.2188C14.8201 9.23958 13.75 8.75 12.5 8.75C11.3636 8.75 10.3693 9.15625 9.51705 9.96875C8.66477 10.7812 8.16288 11.8125 8.01136 13.0625C7.63258 12.9583 7.24432 12.8646 6.84659 12.7812C6.44886 12.6979 6.06061 12.6042 5.68182 12.5C5.94697 10.6667 6.72822 9.16667 8.02557 8C9.32292 6.83333 10.8144 6.25 12.5 6.25C14.3939 6.25 16.0038 6.97917 17.3295 8.4375C18.6553 9.89583 19.3182 11.6667 19.3182 13.75C19.3182 15.3542 18.9015 16.7969 18.0682 18.0781C17.2348 19.3594 16.1364 20.2708 14.7727 20.8125Z" fill="#1C1B1F"/>
</svg>
